<svg xmlns="http://www.w3.org/2000/svg" width="88.876" height="79.865" viewBox="0 0 88.876 79.865">
  <g id="Group_653" data-name="Group 653" transform="translate(0 0)">
    <path id="Path_423" data-name="Path 423" d="M245.577,303.792a12.8,12.8,0,1,1-12.8,12.8,12.8,12.8,0,0,1,12.8-12.8m0,3.288a9.511,9.511,0,1,0,9.512,9.511,9.511,9.511,0,0,0-9.512-9.511" transform="translate(-224.83 -249.525)" fill="#004" fill-rule="evenodd"/>
    <path id="Path_424" data-name="Path 424" d="M248.958,310.461a9.511,9.511,0,1,1-9.512,9.511,9.511,9.511,0,0,1,9.512-9.511m0,3.582a5.93,5.93,0,1,0,5.929,5.929,5.929,5.929,0,0,0-5.929-5.929" transform="translate(-228.21 -252.906)" fill="#a9c2c2" fill-rule="evenodd"/>
    <path id="Path_425" data-name="Path 425" d="M249.779,327.522a6.729,6.729,0,1,1,6.729-6.729,6.729,6.729,0,0,1-6.729,6.729m0-15.442a8.713,8.713,0,1,0,8.713,8.713,8.713,8.713,0,0,0-8.713-8.713" transform="translate(-229.032 -253.727)" fill="#7e9191"/>
    <path id="Path_426" data-name="Path 426" d="M250.936,321a2.382,2.382,0,0,1,.489-.2l.319-4.146h.705l.319,4.146a2.383,2.383,0,0,1,.489.2l3.158-2.706.249.249.249.249-2.706,3.158a2.417,2.417,0,0,1,.2.489l4.147.319v.705l-4.147.319a2.4,2.4,0,0,1-.2.489l2.707,3.158-.249.249-.25.249-3.158-2.706a2.408,2.408,0,0,1-.489.2l-.319,4.147h-.705l-.319-4.146a2.438,2.438,0,0,1-.489-.2l-3.158,2.706-.249-.249-.249-.249,2.706-3.158a2.391,2.391,0,0,1-.2-.489l-4.147-.319v-.705l4.147-.319a2.391,2.391,0,0,1,.2-.489l-2.706-3.158.249-.249.249-.249Z" transform="translate(-231.349 -256.045)" fill="#a9c2c2" fill-rule="evenodd"/>
    <path id="Path_427" data-name="Path 427" d="M367.983,329.671a2.89,2.89,0,1,0-2.89-2.891A2.9,2.9,0,0,0,367.983,329.671Z" transform="translate(-291.907 -259.714)" fill="#a9c2c2" fill-rule="evenodd"/>
    <path id="Path_428" data-name="Path 428" d="M370.028,324.737a2.89,2.89,0,1,1-4.088,0A2.89,2.89,0,0,1,370.028,324.737Z" transform="translate(-291.907 -259.714)" fill="#a9c2c2" fill-rule="evenodd"/>
    <path id="Path_429" data-name="Path 429" d="M370.874,326.78a2.891,2.891,0,1,1-2.891-2.89A2.891,2.891,0,0,1,370.874,326.78Z" transform="translate(-291.907 -259.714)" fill="#a9c2c2" fill-rule="evenodd"/>
    <path id="Path_430" data-name="Path 430" d="M370.027,328.824a2.89,2.89,0,1,1,0-4.087A2.89,2.89,0,0,1,370.027,328.824Z" transform="translate(-291.907 -259.714)" fill="#a9c2c2" fill-rule="evenodd"/>
    <path id="Path_431" data-name="Path 431" d="M367.983,329.671a2.89,2.89,0,1,1,2.89-2.89A2.89,2.89,0,0,1,367.983,329.671Z" transform="translate(-291.907 -259.714)" fill="#a9c2c2" fill-rule="evenodd"/>
    <path id="Path_432" data-name="Path 432" d="M365.94,328.824a2.89,2.89,0,1,1,4.087,0A2.89,2.89,0,0,1,365.94,328.824Z" transform="translate(-291.907 -259.714)" fill="#a9c2c2" fill-rule="evenodd"/>
    <path id="Path_433" data-name="Path 433" d="M365.093,326.78a2.89,2.89,0,1,1,2.89,2.891A2.89,2.89,0,0,1,365.093,326.78Z" transform="translate(-291.907 -259.714)" fill="#a9c2c2" fill-rule="evenodd"/>
    <path id="Path_434" data-name="Path 434" d="M357.8,303.792a12.8,12.8,0,1,1-12.8,12.8,12.8,12.8,0,0,1,12.8-12.8m0,3.288a9.511,9.511,0,1,0,9.512,9.511,9.511,9.511,0,0,0-9.512-9.511" transform="translate(-281.718 -249.525)" fill="#004" fill-rule="evenodd"/>
    <path id="Path_435" data-name="Path 435" d="M361.176,310.461a9.511,9.511,0,1,1-9.512,9.511,9.511,9.511,0,0,1,9.512-9.511m0,3.582a5.93,5.93,0,1,0,5.93,5.929,5.93,5.93,0,0,0-5.93-5.929" transform="translate(-285.099 -252.906)" fill="#a9c2c2" fill-rule="evenodd"/>
    <path id="Path_436" data-name="Path 436" d="M362,327.522a6.729,6.729,0,1,1,6.729-6.729A6.729,6.729,0,0,1,362,327.522m0-15.442a8.713,8.713,0,1,0,8.713,8.713A8.713,8.713,0,0,0,362,312.08" transform="translate(-285.92 -253.727)" fill="#7e9191"/>
    <path id="Path_437" data-name="Path 437" d="M363.154,321a2.4,2.4,0,0,1,.49-.2l.319-4.146h.7l.319,4.146a2.382,2.382,0,0,1,.489.2l3.158-2.706.249.249.249.249-2.706,3.158a2.391,2.391,0,0,1,.2.489l4.147.319v.705l-4.147.319a2.43,2.43,0,0,1-.2.489l2.706,3.158-.249.249-.249.249-3.158-2.706a2.407,2.407,0,0,1-.489.2l-.319,4.147h-.7l-.319-4.146a2.438,2.438,0,0,1-.489-.2L360,327.927l-.249-.249-.249-.249,2.706-3.158a2.391,2.391,0,0,1-.2-.489l-4.147-.319v-.705L362,322.44a2.391,2.391,0,0,1,.2-.489l-2.706-3.158.249-.249L360,318.3Z" transform="translate(-288.238 -256.045)" fill="#a9c2c2" fill-rule="evenodd"/>
    <path id="Path_438" data-name="Path 438" d="M354.129,296.559a16.374,16.374,0,0,1,4.308.574,1.172,1.172,0,0,1,.521,1.96L340.3,317.753a1.173,1.173,0,0,1-1.96-.521,16.378,16.378,0,0,1,15.792-20.674Z" transform="translate(-278.052 -245.859)" fill="#404f9d" fill-rule="evenodd"/>
    <rect id="Rectangle_929" data-name="Rectangle 929" width="25.431" height="1.71" rx="0.609" transform="translate(33.038 70.033)" fill="#404f9d"/>
    <path id="Path_439" data-name="Path 439" d="M240.244,295.46a18.063,18.063,0,0,1,17.9,15.646,2.131,2.131,0,0,1-2.113,2.414H224.457a2.131,2.131,0,0,1-2.113-2.414A18.063,18.063,0,0,1,240.244,295.46Z" transform="translate(-219.53 -245.301)" fill="#3767dd" fill-rule="evenodd"/>
    <path id="Path_440" data-name="Path 440" d="M243.026,299a15.334,15.334,0,0,1,15.2,13.282,1.753,1.753,0,0,1-.432,1.432c-.046.052-.095.1-.144.148a15.336,15.336,0,0,0-29.24,0,1.938,1.938,0,0,1-.144-.148,1.754,1.754,0,0,1-.432-1.432A15.334,15.334,0,0,1,243.026,299Z" transform="translate(-222.313 -247.097)" fill="#404f9d" fill-rule="evenodd"/>
    <path id="Path_441" data-name="Path 441" d="M309.011,321.3a6.493,6.493,0,0,0-.52,1.345,1.821,1.821,0,0,0,.2,1.391c.513.757,1.6.779,2.514.72l1.347-.087c.575-.037,1.244-.13,1.53-.63a1.933,1.933,0,0,0-.067-1.492,11.483,11.483,0,0,1-.481-3.434,2.626,2.626,0,0,0-.107-1.021,1.591,1.591,0,0,0-1.088-.87c-1.048-.285-1.845-.26-2.13.747A22.654,22.654,0,0,1,309.011,321.3Z" transform="translate(-263.187 -256.255)" fill="#191213"/>
    <path id="Path_442" data-name="Path 442" d="M312.676,322.807a5.065,5.065,0,0,0-.523,2.37.778.778,0,0,0,.19.487.89.89,0,0,0,.408.189,17.876,17.876,0,0,0,7.8.3,2.379,2.379,0,0,0,1.058-.39.892.892,0,0,0,.333-1c-.187-.428-.737-.53-1.2-.582a6.311,6.311,0,0,1-2.411-.638A2.441,2.441,0,0,1,317,321.547c-.005-.635.274-1.4-.205-1.821a1.414,1.414,0,0,0-.855-.248c-1-.065-1.527-.282-2.135.453A11.9,11.9,0,0,0,312.676,322.807Z" transform="translate(-265.061 -257.436)" fill="#281b1c"/>
    <path id="Path_528" data-name="Path 528" d="M348.79,295.582l2.32-1.339,9.673,16.977a1.513,1.513,0,0,1-.491,1.83c-.521.521-1.465.15-1.829-.491Z" transform="translate(-283.642 -244.684)" fill-rule="evenodd"/>
    <path id="Path_529" data-name="Path 529" d="M239.787,289.695l25.39-.372c-4.793,9.414-5,16.221,0,21.9H253.546l-.823-.814H224.7a2.376,2.376,0,0,1-2.356-2.691c1.277-9.562,7.118-16.659,16.408-17.152C239.863,290.506,240,289.943,239.787,289.695Z" transform="translate(-219.53 -242.19)" fill="#404f9d" fill-rule="evenodd"/>
    <path id="Path_530" data-name="Path 530" d="M298.013,311.289H299.3c-3.9-6.079-2.49-12.82.512-19.311l-1,.015a2.094,2.094,0,0,0-1.951,1.347c-2.22,5.613-3.112,11.321-.8,16.665A2.094,2.094,0,0,0,298.013,311.289Z" transform="translate(-256.219 -243.536)" fill="#3767dd" fill-rule="evenodd"/>
    <path id="Path_531" data-name="Path 531" d="M284.914,294.285h11.32c3.6,0,8.44.517,10.7-3.241l9.934-16.5c1.263-2.1,1.277-3.7.592-6.554l-2.27-9.464c-.2-.841-.294-1.5.511-1.5h1.041a2.111,2.111,0,0,1,2.071,1.628l2.009,8.267c.407,1.671,1.785,7.2.9,8.676l-12.155,20.394h-24.9A16.579,16.579,0,0,0,284.914,294.285Z" transform="translate(-251.142 -225.818)" fill="#3767dd" fill-rule="evenodd"/>
    <rect id="Rectangle_933" data-name="Rectangle 933" width="27.07" height="4.688" rx="1.144" transform="translate(19.245 42.817)"/>
    <path id="Rectangle_934" data-name="Rectangle 934" d="M2.144,0H29.859A2.145,2.145,0,0,1,32,2.145V26.194a2.145,2.145,0,0,1-2.145,2.145H2.145A2.145,2.145,0,0,1,0,26.194V2.144A2.144,2.144,0,0,1,2.144,0Z" transform="translate(0 14.418)" fill="#3767dd"/>
    <path id="Path_532" data-name="Path 532" d="M221.311,226.263h26.466a.939.939,0,0,1,.937.936v9.636c-9.446,3.831-21.712-5.1-28.339,7.473V227.2A.939.939,0,0,1,221.311,226.263Z" transform="translate(-218.542 -210.222)" fill="#404f9d" fill-rule="evenodd"/>
    <path id="Path_533" data-name="Path 533" d="M360.712,264.213c.646-.055,1.287,1.283,1.431,2.988s-.262,3.131-.909,3.186-1.287-1.283-1.431-2.987S360.065,264.268,360.712,264.213Z" transform="translate(-289.21 -229.46)" fill="#f1cf00" fill-rule="evenodd"/>
    <path id="Path_534" data-name="Path 534" d="M357.486,263.384h.016a.427.427,0,0,1,.47.375l.7,6.121a.427.427,0,0,1-.373.472h-.016a3.534,3.534,0,1,1-.8-6.969Z" transform="translate(-286.245 -229.038)" fill="#3767dd" fill-rule="evenodd"/>
    <path id="Path_535" data-name="Path 535" d="M359.755,263.517l.894,6.864a4.572,4.572,0,0,0,.589-.029h.016a.427.427,0,0,0,.373-.472l-.7-6.121a.427.427,0,0,0-.47-.375h-.016A4.491,4.491,0,0,0,359.755,263.517Z" transform="translate(-289.2 -229.038)" fill="#9dc6c6" fill-rule="evenodd"/>
    <path id="Rectangle_935" data-name="Rectangle 935" d="M.7,0h0a.7.7,0,0,1,.7.7V5.075A.705.705,0,0,1,.7,5.781h0a.7.7,0,0,1-.7-.7V.7A.7.7,0,0,1,.7,0Z" transform="matrix(0.249, -0.969, 0.969, 0.249, 59.663, 31.994)"/>
    <line id="Line_56" data-name="Line 56" x1="0.028" y2="0.03" transform="translate(65.881 31.157)" fill="#edb38c"/>
    <path id="Path_536" data-name="Path 536" d="M313.155,288.6a2.107,2.107,0,0,1,.559.863,1.812,1.812,0,0,1-.079.946c-.4,1.354-1.285,2.581-1.364,3.991a9.583,9.583,0,0,1-.053,1.272,4.122,4.122,0,0,1-.581,1.3l-.96,1.615a1.971,1.971,0,0,0-.38,1.084c.046.732.842,1.149,1.537,1.382.4.134.907.233,1.2-.071a1.182,1.182,0,0,0,.236-.461l3.621-10.744a3.145,3.145,0,0,0-2.045-4.738l-2.6-1.277c-.759-.373-1.792-.7-2.349-.062-.778.889-.026,1.615.606,2.089A22.062,22.062,0,0,1,313.155,288.6Z" transform="translate(-263.756 -239.157)" fill="#2e4c5e"/>
    <path id="Path_537" data-name="Path 537" d="M282.759,230.118c-2.155,4.052-3.245,8.57-4.314,13.033a2.429,2.429,0,0,0-.08,1.2.833.833,0,0,0,.89.65l.018,1.153a3.275,3.275,0,0,0,2.443,1.257,9.684,9.684,0,0,0,2.811-.313l6.008-1.271a1.813,1.813,0,0,0,1.1-.513c.256-.323.162-.926-.245-1,1.421-.255,2.018-1.927,2.349-3.333l1-4.232a31.763,31.763,0,0,0,1.089-6.8c.023-1.7-.143-3.648,1.064-4.848.377-.375.881-.665,1.068-1.163.286-.763-.309-1.551-.861-2.15l-2.161-2.34a.517.517,0,0,0-.922.022,8.734,8.734,0,0,1-3.085,2.253,15.758,15.758,0,0,0-3.346,2.232A17.644,17.644,0,0,0,282.759,230.118Z" transform="translate(-247.915 -206.629)" fill="#28689e"/>
    <path id="Path_538" data-name="Path 538" d="M295.056,239.688a7.371,7.371,0,0,0,6.9,8.979,24.482,24.482,0,0,0,5.144-.162l.319-.586,1.225.427.444-.533a.933.933,0,0,0,1.1.581,10.093,10.093,0,0,1,1.02-3.391,35.908,35.908,0,0,1-9.092-2.645,2.051,2.051,0,0,0-1.433-.33,24.066,24.066,0,0,0,.3-6.278,4.937,4.937,0,0,0-.893-2.81C297.086,229.337,295.245,238.029,295.056,239.688Z" transform="translate(-256.367 -213.168)" fill="#6ea2d8"/>
    <path id="Path_539" data-name="Path 539" d="M305.3,234.65a5.2,5.2,0,0,0-.386-1.418c-.222-.46-.708-.9-1.193-.736-.589.2-.6,1.014-.5,1.627q.439,2.685.879,5.371a7.956,7.956,0,0,1,0,3.824l.821-.081q.028.453.055.906a33.166,33.166,0,0,0,6.488,1.2c-.046-.811-1.045-1.131-1.837-1.314a12.449,12.449,0,0,1-2.793-.95c-1.08-.546-.941-.744-.956-1.978A42.384,42.384,0,0,0,305.3,234.65Z" transform="translate(-260.515 -213.365)" fill="#41519f"/>
    <path id="Path_540" data-name="Path 540" d="M313.145,227.955a7.42,7.42,0,0,0,1.275-1.174l-1.141-1.426a.626.626,0,0,0-.2-.187.462.462,0,0,0-.479.109,1.145,1.145,0,0,0-.22,1.273,3.36,3.36,0,0,0,.83,1.089" transform="translate(-265.133 -209.651)" fill="#2f4c97"/>
    <path id="Path_541" data-name="Path 541" d="M302.5,267.908a2.046,2.046,0,0,1-1.487.316,1.5,1.5,0,0,1-.735-.163.515.515,0,0,1-.225-.651.744.744,0,0,1,.641-.263,3.532,3.532,0,0,0,1.026-.143,1.038,1.038,0,0,0,.7-.71.554.554,0,0,1,.74.341.9.9,0,0,1-.231.856,2.659,2.659,0,0,1-.76.527" transform="translate(-258.908 -230.49)" fill="#3e3f94"/>
    <path id="Path_542" data-name="Path 542" d="M283.262,276.5a11.465,11.465,0,0,0,4.458,1.142l5.134.6c2.368.274,5,.693,6.447,2.587a1.1,1.1,0,0,0,.543.478,1.562,1.562,0,0,0,.779-.167c.259-.075.625,0,.652.272a1.278,1.278,0,0,0-.41,1.014l.584-.1a1.828,1.828,0,0,1-.451,1.332,9.481,9.481,0,0,0-1.447,4.24,7.1,7.1,0,0,1-.583,3.126c-.252.415-.618.751-.877,1.162a2.734,2.734,0,0,0-.412,1.252,2.68,2.68,0,0,0,2.722,2.794c1.509-.126,2.524-1.562,3.253-2.89a35.942,35.942,0,0,0,4.387-13.088,5.482,5.482,0,0,0-.089-2.285c-.525-1.655-2.3-2.519-3.914-3.158q-4.1-1.626-8.33-2.917a10.411,10.411,0,0,0-2.342-.514,11.015,11.015,0,0,0-2.132.139l-8.157,1.069c-1.262.165-2.28-.038-1.831,1.509A4.328,4.328,0,0,0,283.262,276.5Z" transform="translate(-249.346 -233.087)" fill="#3d5e77"/>
    <path id="Path_543" data-name="Path 543" d="M314.77,277.493a6.745,6.745,0,0,1,2.276,1.235c1.518,1.43,1.388,3.891.738,5.873s-1.713,3.9-1.7,5.983c.309.274.749-.139.941-.5a24.929,24.929,0,0,0,2.684-8.624,3.569,3.569,0,0,0-.285-2.328,3.73,3.73,0,0,0-1.627-1.223c-3.152-1.537-7.145-3.7-10.66-4.077C307.049,275.393,313.456,276.986,314.77,277.493Z" transform="translate(-262.527 -234.335)" fill="#4a6d82"/>
    <path id="Path_544" data-name="Path 544" d="M328.433,259.06a3.642,3.642,0,0,0,.935-.054c1.163-.274,1.819-1.608,2.965-1.943a.46.46,0,0,1,.217-.024.489.489,0,0,1,.254.177,4.029,4.029,0,0,0,.572.6.764.764,0,0,0,.781.123.433.433,0,0,0,.111-.689.5.5,0,1,0,.891-.435.53.53,0,0,0,.982-.224c.031-.324-.228-.593-.445-.836-.318-.355-.583-.755-.914-1.1a2.091,2.091,0,0,0-1.221-.685,2.57,2.57,0,0,0-1.107.192,14.372,14.372,0,0,0-2.324,1.038,18.429,18.429,0,0,1-1.78.96,3.33,3.33,0,0,1-1.975.264c-.407-.09-1,2.109-.812,2.42.159.268.906.15,1.211.159Z" transform="translate(-271.85 -224.267)" fill="#edb38c"/>
    <path id="Path_545" data-name="Path 545" d="M323.461,206.7c.3.481.974.651,1.21,1.166a3.08,3.08,0,0,0-1.778,1.834c-.346.988-.206,2.194-.917,2.962a2.708,2.708,0,0,1-2.634.506,20.865,20.865,0,0,0-2.708-.757,3.889,3.889,0,0,0-3.175,1.171c-.187.2-.41.437-.678.39a.76.76,0,0,1-.428-.346l-1.347-1.811a3.806,3.806,0,0,0,.985-2.6c-.013-.738-.241-1.456-.292-2.193-.185-2.685,2.138-5.072,4.753-5.707,2.042-.5,5.47-.292,7.238,1.006S322.535,205.211,323.461,206.7Z" transform="translate(-264.487 -197.451)" fill="#edb38c"/>
    <path id="Path_546" data-name="Path 546" d="M320.726,202.322c.125.322-.326.561-.672.561-.671,0-1.315-.264-1.984-.321a1.576,1.576,0,0,0-1.678.82,2.952,2.952,0,0,0,.057,1.333c.055.446-.051,1-.471,1.157-.368-.471-.24-1.235-.688-1.631a1.372,1.372,0,0,0-1.44-.017,1.867,1.867,0,0,0-.961.793c-.446.889.369,1.993.039,2.931a2.392,2.392,0,0,1-.564.812,2.916,2.916,0,0,1-.955.749,1.089,1.089,0,0,1-1.148-.138c-.5-.473-.225-1.3-.353-1.98-.135-.715-.745-1.273-.876-1.99a3.009,3.009,0,0,1,.1-1.194,9.5,9.5,0,0,1,1.045-2.9,6.8,6.8,0,0,1,4.038-2.877,11.685,11.685,0,0,1,5.036-.12,6,6,0,0,1,2.094.674c.744.444,1.425,1.187,2.287,1.11a2.165,2.165,0,0,1-.808.461,3.364,3.364,0,0,1,1.061.778.689.689,0,0,1-.552.312.709.709,0,0,1-.439,1.083c-.366.04-.776-.36-1.149-.415.092.048.193.172.287.233C321.791,202.625,320.855,202.654,320.726,202.322Z" transform="translate(-263.473 -195.943)" fill="#9e5e32"/>
    <path id="Path_547" data-name="Path 547" d="M319.414,213.265c0,.045-.062.068-.1.044a.184.184,0,0,1-.064-.115.847.847,0,0,1-.025-.505.3.3,0,0,1,.407-.189.705.705,0,0,0-1.052-.854,1.218,1.218,0,0,0-.4.6,1.057,1.057,0,0,0-.084.583,1.218,1.218,0,0,0,.231.436l.338.468c.109.151.245.317.431.322a.412.412,0,0,0,.375-.353,1.056,1.056,0,0,0-.083-.546" transform="translate(-268.075 -202.75)" fill="#c19272"/>
    <path id="Path_548" data-name="Path 548" d="M329.742,213.462a1.686,1.686,0,0,1,.954-.243,1.072,1.072,0,0,1,.77,1.141,3.125,3.125,0,0,1-.546,1.388c-.438.737-.876,1.474-1.324,2.2a3.681,3.681,0,0,1-1.117,1.3,2.523,2.523,0,0,1-2.082.138,7.474,7.474,0,0,1-1.873-1.05c.026-.385.409-.625.673-.906a2.659,2.659,0,0,0,.54-2.1c-.118-1.164.556-.882,1.49-1.06A10.859,10.859,0,0,0,329.742,213.462Z" transform="translate(-271.34 -203.604)" fill="#ceeae8"/>
    <path id="Path_549" data-name="Path 549" d="M322.439,212.558a24.6,24.6,0,0,0,2.726,1.746c.15.083.284-.147.134-.23a24.833,24.833,0,0,1-2.725-1.745C322.436,212.226,322.3,212.457,322.439,212.558Z" transform="translate(-270.254 -203.145)" fill="#ceeae8"/>
    <path id="Path_550" data-name="Path 550" d="M316.716,217.429q2.163,1.46,4.25,3.028c.137.1.27-.128.135-.23q-2.087-1.569-4.25-3.028C316.708,217.1,316.574,217.333,316.716,217.429Z" transform="translate(-267.351 -205.615)" fill="#ceeae8"/>
    <path id="Path_551" data-name="Path 551" d="M327.848,217.064a1.489,1.489,0,0,1,.165-.768,1.336,1.336,0,0,1,.795-.4,6.245,6.245,0,0,0,1.5-.627.6.6,0,0,1,.267-.105c.221-.009.375.244.361.465a1.8,1.8,0,0,1-.231.617l-.023.118c.013.045.057.072.092.1a.47.47,0,0,1,.026.621.831.831,0,0,1-.6.282c-.15.011-.332.015-.4.147a.443.443,0,0,0-.034.209,1.6,1.6,0,0,1-1.222,1.473,1.209,1.209,0,0,1,.062.439.212.212,0,0,1-.054.154c-.069.06-.176.019-.256-.025-.5-.27-1.213-.416-1.042-1.054C327.4,218.132,327.848,217.725,327.848,217.064Z" transform="translate(-272.708 -204.595)" fill="#b7cecc"/>
    <path id="Path_552" data-name="Path 552" d="M312.633,205.12a1.392,1.392,0,0,0,.657-.164,1.338,1.338,0,0,0,.428-.519c.531-.991.656-2.259,1.412-3.053.924-.97,2.371-.843,3.648-.845a12.772,12.772,0,0,0,3.031-.369,1.309,1.309,0,0,0,.523-.217,1.292,1.292,0,0,0,.387-.977,4.237,4.237,0,0,0-1.96-3.316,9.523,9.523,0,0,0-6.218-1.916,9.7,9.7,0,0,0-6,2.615,5.963,5.963,0,0,0-1.914,3.124,7.411,7.411,0,0,0,.01,2.363,6.365,6.365,0,0,0,.515,2.006C308.189,205.963,310.843,205.257,312.633,205.12Z" transform="translate(-262.219 -193.729)" fill="#46b5e4"/>
    <path id="Path_553" data-name="Path 553" d="M311.26,195.576A7.184,7.184,0,0,0,307.739,198a4.281,4.281,0,0,0-.6,4.107,1.652,1.652,0,0,0,.842.934,1.535,1.535,0,0,0,1.567-.464c.814-.814,1.247-1.937,2.074-2.768.676-.678,1.524-.991,2.234-1.587a1.67,1.67,0,0,0,.422-2.123C313.655,195.03,312.232,195.238,311.26,195.576Z" transform="translate(-262.379 -194.527)" fill="#424e9d"/>
    <path id="Path_554" data-name="Path 554" d="M318.736,219.7l.014.125-.084.072a2.606,2.606,0,0,1-.492.19,16.78,16.78,0,0,1-.8-3.646.824.824,0,0,1,.024-.391c.084-.211.6-.506.789-.317.118.116-.018,1.133-.007,1.331A8.984,8.984,0,0,0,318.736,219.7Z" transform="translate(-267.709 -204.854)" fill="#681616"/>
    <path id="Path_555" data-name="Path 555" d="M330.825,209.466a3.1,3.1,0,0,1,1.565-.324c.26,0,.539-.074.545-.381l-.022-.029a3.458,3.458,0,0,0-.523.03,3.206,3.206,0,0,0-.656.027,1.556,1.556,0,0,0-1.022.565C330.664,209.427,330.756,209.5,330.825,209.466Z" transform="translate(-274.471 -201.331)" fill="#4c3729"/>
    <path id="Path_556" data-name="Path 556" d="M331.224,211.237a2.806,2.806,0,0,1,1.092-.262c.194-.03.423-.06.523-.244a.053.053,0,0,0-.059-.077c-.128.034-.233.11-.361.15s-.284.06-.425.095a2.424,2.424,0,0,0-.775.33Z" transform="translate(-274.734 -202.308)" fill="#4c3729"/>
    <path id="Path_557" data-name="Path 557" d="M333.014,211.177c-.029.117-.1.414.086.447.209.036.213-.281.186-.408l-.074-.074-.021,0-.085.035-.025.1.021.071v.1l.024-.048-.007-.06c-.008-.052-.021-.1-.03-.156Z" transform="translate(-275.624 -202.554)" fill="#4c3729"/>
    <path id="Path_558" data-name="Path 558" d="M332.154,212.033a.831.831,0,0,0,.46.1c.121-.008.3-.036.36-.155l-.024-.041a1.541,1.541,0,0,0-.3.088.742.742,0,0,1-.456-.06C332.149,211.948,332.111,212.009,332.154,212.033Z" transform="translate(-275.199 -202.961)" fill="#4c3729"/>
    <path id="Path_559" data-name="Path 559" d="M332.794,212.607a.332.332,0,0,0,.206-.04l-.018-.065c-.063,0-.124.015-.188.016A.045.045,0,0,0,332.794,212.607Z" transform="translate(-275.511 -203.246)" fill="#4c3729"/>
  </g>
</svg>
