<svg xmlns="http://www.w3.org/2000/svg" width="683" height="160" viewBox="0 0 683 160">
  <g id="Footer-BG-1" transform="translate(0)" opacity="0.35">
    <g id="Group_466" data-name="Group 466" transform="translate(97.663 0)">
      <g id="Group_464" data-name="Group 464" transform="translate(88.103 27.799)">
        <rect id="Rectangle_615" data-name="Rectangle 615" width="30.139" height="86.933" transform="translate(0.804 24.37)" fill="#b5c3c2"/>
        <rect id="Rectangle_616" data-name="Rectangle 616" width="20.29" height="36.532" transform="translate(5.729 18.138)" fill="#b5c3c2"/>
        <rect id="Rectangle_617" data-name="Rectangle 617" width="11.254" height="20.264" transform="translate(10.246 14.184)" fill="#b5c3c2"/>
        <path id="Path_161" data-name="Path 161" d="M314.995,240.98h-7.67V227.171h7.67Z" transform="translate(-295.287 -216.383)" fill="#b5c3c2"/>
        <g id="Group_463" data-name="Group 463" transform="translate(14.536)">
          <path id="Path_162" data-name="Path 162" d="M311.505,229.856h-.832V216.047h.832Z" transform="translate(-310.673 -211.273)" fill="#b5c3c2"/>
          <path id="Path_163" data-name="Path 163" d="M313.974,221.026h-.832V207.217h.832Z" transform="translate(-311.3 -207.217)" fill="#b5c3c2"/>
        </g>
        <rect id="Rectangle_618" data-name="Rectangle 618" width="31.747" height="0.926" transform="translate(0 24.147)" fill="#b5c3c2"/>
        <rect id="Rectangle_619" data-name="Rectangle 619" width="21.77" height="0.891" transform="translate(4.988 17.692)" fill="#b5c3c2"/>
        <rect id="Rectangle_620" data-name="Rectangle 620" width="12.546" height="0.684" transform="translate(9.426 13.809)" fill="#b5c3c2"/>
        <rect id="Rectangle_621" data-name="Rectangle 621" width="0.943" height="3.828" transform="translate(7.594 19.62)" fill="#b5c3c2" opacity="0.29"/>
        <rect id="Rectangle_622" data-name="Rectangle 622" width="0.943" height="3.828" transform="translate(10.204 19.62)" fill="#b5c3c2" opacity="0.29"/>
        <rect id="Rectangle_623" data-name="Rectangle 623" width="0.943" height="3.828" transform="translate(12.814 19.62)" fill="#b5c3c2" opacity="0.29"/>
        <rect id="Rectangle_624" data-name="Rectangle 624" width="0.943" height="3.828" transform="translate(15.424 19.62)" fill="#b5c3c2" opacity="0.29"/>
        <rect id="Rectangle_625" data-name="Rectangle 625" width="0.943" height="3.828" transform="translate(18.034 19.62)" fill="#b5c3c2" opacity="0.29"/>
        <rect id="Rectangle_626" data-name="Rectangle 626" width="0.943" height="3.828" transform="translate(20.644 19.62)" fill="#b5c3c2" opacity="0.29"/>
        <rect id="Rectangle_627" data-name="Rectangle 627" width="0.943" height="3.828" transform="translate(23.253 19.62)" fill="#b5c3c2" opacity="0.29"/>
        <rect id="Rectangle_628" data-name="Rectangle 628" width="2.279" height="4.541" transform="translate(3.449 27.836)" fill="#b5c3c2"/>
        <rect id="Rectangle_629" data-name="Rectangle 629" width="2.279" height="4.541" transform="translate(7.963 27.836)" fill="#b5c3c2" opacity="0.29"/>
        <rect id="Rectangle_630" data-name="Rectangle 630" width="2.279" height="4.541" transform="translate(12.477 27.836)" fill="#b5c3c2"/>
        <rect id="Rectangle_631" data-name="Rectangle 631" width="2.279" height="4.541" transform="translate(16.991 27.836)" fill="#b5c3c2"/>
        <rect id="Rectangle_632" data-name="Rectangle 632" width="2.279" height="4.541" transform="translate(21.504 27.836)" fill="#b5c3c2"/>
        <rect id="Rectangle_633" data-name="Rectangle 633" width="2.279" height="4.541" transform="translate(26.018 27.836)" fill="#b5c3c2"/>
        <rect id="Rectangle_634" data-name="Rectangle 634" width="2.279" height="4.541" transform="translate(3.449 34.915)" fill="#b5c3c2"/>
        <rect id="Rectangle_635" data-name="Rectangle 635" width="2.279" height="4.541" transform="translate(7.963 34.915)" fill="#b5c3c2"/>
        <rect id="Rectangle_636" data-name="Rectangle 636" width="2.279" height="4.541" transform="translate(12.477 34.915)" fill="#b5c3c2"/>
        <rect id="Rectangle_637" data-name="Rectangle 637" width="2.279" height="4.541" transform="translate(16.991 34.915)" fill="#b5c3c2" opacity="0.29"/>
        <rect id="Rectangle_638" data-name="Rectangle 638" width="2.279" height="4.541" transform="translate(21.504 34.915)" fill="#b5c3c2"/>
        <rect id="Rectangle_639" data-name="Rectangle 639" width="2.279" height="4.541" transform="translate(26.018 34.915)" fill="#b5c3c2"/>
        <rect id="Rectangle_640" data-name="Rectangle 640" width="2.279" height="4.541" transform="translate(3.449 41.994)" fill="#b5c3c2"/>
        <rect id="Rectangle_641" data-name="Rectangle 641" width="2.279" height="4.541" transform="translate(7.963 41.994)" fill="#b5c3c2"/>
        <rect id="Rectangle_642" data-name="Rectangle 642" width="2.279" height="4.541" transform="translate(12.477 41.994)" fill="#b5c3c2"/>
        <rect id="Rectangle_643" data-name="Rectangle 643" width="2.279" height="4.541" transform="translate(16.991 41.994)" fill="#b5c3c2"/>
        <rect id="Rectangle_644" data-name="Rectangle 644" width="2.279" height="4.541" transform="translate(21.504 41.994)" fill="#b5c3c2" opacity="0.29"/>
        <rect id="Rectangle_645" data-name="Rectangle 645" width="2.279" height="4.541" transform="translate(26.018 41.994)" fill="#b5c3c2" opacity="0.29"/>
        <rect id="Rectangle_646" data-name="Rectangle 646" width="2.279" height="4.542" transform="translate(3.449 49.073)" fill="#b5c3c2" opacity="0.29"/>
        <rect id="Rectangle_647" data-name="Rectangle 647" width="2.279" height="4.542" transform="translate(7.963 49.073)" fill="#b5c3c2"/>
        <rect id="Rectangle_648" data-name="Rectangle 648" width="2.279" height="4.542" transform="translate(12.477 49.073)" fill="#b5c3c2"/>
        <rect id="Rectangle_649" data-name="Rectangle 649" width="2.279" height="4.542" transform="translate(16.991 49.073)" fill="#b5c3c2"/>
        <rect id="Rectangle_650" data-name="Rectangle 650" width="2.279" height="4.542" transform="translate(21.504 49.073)" fill="#b5c3c2"/>
        <rect id="Rectangle_651" data-name="Rectangle 651" width="2.279" height="4.542" transform="translate(26.018 49.073)" fill="#b5c3c2"/>
        <rect id="Rectangle_652" data-name="Rectangle 652" width="2.279" height="4.542" transform="translate(3.449 56.152)" fill="#b5c3c2"/>
        <rect id="Rectangle_653" data-name="Rectangle 653" width="2.279" height="4.542" transform="translate(7.963 56.152)" fill="#b5c3c2" opacity="0.29"/>
        <rect id="Rectangle_654" data-name="Rectangle 654" width="2.279" height="4.542" transform="translate(12.477 56.152)" fill="#b5c3c2"/>
        <rect id="Rectangle_655" data-name="Rectangle 655" width="2.279" height="4.542" transform="translate(16.991 56.152)" fill="#b5c3c2" opacity="0.29"/>
        <rect id="Rectangle_656" data-name="Rectangle 656" width="2.279" height="4.542" transform="translate(21.504 56.152)" fill="#b5c3c2"/>
        <rect id="Rectangle_657" data-name="Rectangle 657" width="2.279" height="4.542" transform="translate(26.018 56.152)" fill="#b5c3c2"/>
        <rect id="Rectangle_658" data-name="Rectangle 658" width="2.279" height="4.542" transform="translate(3.449 63.232)" fill="#b5c3c2"/>
        <rect id="Rectangle_659" data-name="Rectangle 659" width="2.279" height="4.542" transform="translate(7.963 63.232)" fill="#b5c3c2"/>
        <rect id="Rectangle_660" data-name="Rectangle 660" width="2.279" height="4.542" transform="translate(12.477 63.232)" fill="#b5c3c2"/>
        <rect id="Rectangle_661" data-name="Rectangle 661" width="2.279" height="4.542" transform="translate(16.991 63.232)" fill="#b5c3c2"/>
        <rect id="Rectangle_662" data-name="Rectangle 662" width="2.279" height="4.542" transform="translate(21.504 63.232)" fill="#b5c3c2"/>
        <rect id="Rectangle_663" data-name="Rectangle 663" width="2.279" height="4.542" transform="translate(26.018 63.232)" fill="#b5c3c2" opacity="0.29"/>
        <rect id="Rectangle_664" data-name="Rectangle 664" width="2.279" height="4.541" transform="translate(3.449 70.311)" fill="#b5c3c2"/>
        <rect id="Rectangle_665" data-name="Rectangle 665" width="2.279" height="4.541" transform="translate(7.963 70.311)" fill="#b5c3c2" opacity="0.29"/>
        <rect id="Rectangle_666" data-name="Rectangle 666" width="2.279" height="4.541" transform="translate(12.477 70.311)" fill="#b5c3c2" opacity="0.29"/>
        <rect id="Rectangle_667" data-name="Rectangle 667" width="2.279" height="4.541" transform="translate(16.991 70.311)" fill="#b5c3c2"/>
        <rect id="Rectangle_668" data-name="Rectangle 668" width="2.279" height="4.541" transform="translate(21.504 70.311)" fill="#b5c3c2"/>
        <rect id="Rectangle_669" data-name="Rectangle 669" width="2.279" height="4.541" transform="translate(26.018 70.311)" fill="#b5c3c2"/>
        <rect id="Rectangle_670" data-name="Rectangle 670" width="2.279" height="4.541" transform="translate(3.449 77.39)" fill="#b5c3c2"/>
        <rect id="Rectangle_671" data-name="Rectangle 671" width="2.279" height="4.541" transform="translate(7.963 77.39)" fill="#b5c3c2"/>
        <rect id="Rectangle_672" data-name="Rectangle 672" width="2.279" height="4.541" transform="translate(12.477 77.39)" fill="#b5c3c2"/>
        <rect id="Rectangle_673" data-name="Rectangle 673" width="2.279" height="4.541" transform="translate(16.991 77.39)" fill="#b5c3c2"/>
        <rect id="Rectangle_674" data-name="Rectangle 674" width="2.279" height="4.541" transform="translate(21.504 77.39)" fill="#b5c3c2" opacity="0.29"/>
        <rect id="Rectangle_675" data-name="Rectangle 675" width="2.279" height="4.541" transform="translate(26.018 77.39)" fill="#b5c3c2"/>
        <rect id="Rectangle_676" data-name="Rectangle 676" width="2.279" height="4.541" transform="translate(3.449 84.469)" fill="#b5c3c2"/>
        <rect id="Rectangle_677" data-name="Rectangle 677" width="2.279" height="4.541" transform="translate(7.963 84.469)" fill="#b5c3c2" opacity="0.29"/>
        <rect id="Rectangle_678" data-name="Rectangle 678" width="2.279" height="4.541" transform="translate(12.477 84.469)" fill="#b5c3c2"/>
        <rect id="Rectangle_679" data-name="Rectangle 679" width="2.279" height="4.541" transform="translate(16.991 84.469)" fill="#b5c3c2"/>
        <rect id="Rectangle_680" data-name="Rectangle 680" width="2.279" height="4.541" transform="translate(21.504 84.469)" fill="#b5c3c2"/>
        <rect id="Rectangle_681" data-name="Rectangle 681" width="2.279" height="4.541" transform="translate(26.018 84.469)" fill="#b5c3c2"/>
        <rect id="Rectangle_682" data-name="Rectangle 682" width="2.279" height="4.541" transform="translate(3.449 91.548)" fill="#b5c3c2"/>
        <rect id="Rectangle_683" data-name="Rectangle 683" width="2.279" height="4.541" transform="translate(7.963 91.548)" fill="#b5c3c2"/>
        <rect id="Rectangle_684" data-name="Rectangle 684" width="2.279" height="4.541" transform="translate(12.477 91.548)" fill="#b5c3c2"/>
        <rect id="Rectangle_685" data-name="Rectangle 685" width="2.279" height="4.541" transform="translate(16.991 91.548)" fill="#b5c3c2" opacity="0.29"/>
        <rect id="Rectangle_686" data-name="Rectangle 686" width="2.279" height="4.541" transform="translate(21.504 91.548)" fill="#b5c3c2"/>
        <rect id="Rectangle_687" data-name="Rectangle 687" width="2.279" height="4.541" transform="translate(26.018 91.548)" fill="#b5c3c2" opacity="0.29"/>
        <rect id="Rectangle_688" data-name="Rectangle 688" width="2.279" height="4.541" transform="translate(3.449 98.627)" fill="#b5c3c2" opacity="0.29"/>
        <rect id="Rectangle_689" data-name="Rectangle 689" width="2.279" height="4.541" transform="translate(7.963 98.627)" fill="#b5c3c2"/>
        <rect id="Rectangle_690" data-name="Rectangle 690" width="2.279" height="4.541" transform="translate(12.477 98.627)" fill="#b5c3c2" opacity="0.29"/>
        <rect id="Rectangle_691" data-name="Rectangle 691" width="2.279" height="4.541" transform="translate(16.991 98.627)" fill="#b5c3c2"/>
        <rect id="Rectangle_692" data-name="Rectangle 692" width="2.279" height="4.541" transform="translate(21.504 98.627)" fill="#b5c3c2"/>
        <rect id="Rectangle_693" data-name="Rectangle 693" width="2.279" height="4.541" transform="translate(26.018 98.627)" fill="#b5c3c2"/>
      </g>
      <g id="Group_465" data-name="Group 465" transform="translate(0 38.909)">
        <rect id="Rectangle_694" data-name="Rectangle 694" width="48.449" height="73.234" transform="translate(1.377 16.567)" fill="#b5c3c2"/>
        <rect id="Rectangle_695" data-name="Rectangle 695" width="51.202" height="2.07" transform="translate(0 15.308)" fill="#b5c3c2"/>
        <rect id="Rectangle_696" data-name="Rectangle 696" width="45.192" height="9.839" transform="translate(3.005 12.658)" fill="#b5c3c2"/>
        <rect id="Rectangle_697" data-name="Rectangle 697" width="17.895" height="10.75" transform="translate(6.464 8.633)" fill="#b5c3c2"/>
        <path id="Path_164" data-name="Path 164" d="M192.113,244.531H181.757v-5.659h7.428Z" transform="translate(-175.292 -232.869)" fill="#b5c3c2"/>
        <rect id="Rectangle_698" data-name="Rectangle 698" width="1.004" height="12.604" transform="translate(10.639 1.307)" fill="#b5c3c2"/>
        <path id="Path_165" data-name="Path 165" d="M188.619,228.42c0,.361-.4.654-.9.654s-.9-.292-.9-.654.4-.653.9-.653S188.619,228.059,188.619,228.42Z" transform="translate(-176.577 -227.767)" fill="#b5c3c2"/>
      </g>
      <path id="Path_166" data-name="Path 166" d="M757.358,312.693H704.325l-6.618-107.673,59.651,8.973Z" transform="translate(-306.331 -178.409)" fill="#b5c3c2"/>
      <path id="Path_167" data-name="Path 167" d="M449.118,228.589v-36H440.8v-9.642h-2.971V168.807H421.458V158.413H420v10.394h-3.207V155.8h-1.457v13.011H404.988v23.784h-5.346v36h-4.582v65.568h57.28V228.589Z" transform="translate(-229.466 -155.796)" fill="#b5c3c2"/>
    </g>
    <rect id="Rectangle_699" data-name="Rectangle 699" width="633.652" height="10.921" transform="translate(31.329 132.949)" fill="#b5c3c2"/>
    <path id="Path_168" data-name="Path 168" d="M574.588,382.372H546.529l10.933-40.716h17.126Z" transform="translate(-170.272 -241.177)" fill="#95a9a7"/>
    <g id="Group_468" data-name="Group 468" transform="translate(8.594 25.276)">
      <rect id="Rectangle_700" data-name="Rectangle 700" width="665.306" height="17.22" transform="translate(0 117.504)" fill="#95a9a7"/>
      <path id="Path_169" data-name="Path 169" d="M537.272,243.123V225.08h-9.009v-6.869h-4.82v-5.77h-1.691V202.55h-.437v9.891h-1.691v5.77H514.8v6.869h-8.94v18.043H504V275.88H490.141v37.341h48.92v-70.1Z" transform="translate(-164.546 -202.55)" fill="#95a9a7"/>
      <path id="Path_170" data-name="Path 170" d="M607.876,315.937H564.268v.575h1.973v53.434H605.9V316.512h1.973Z" transform="translate(-183.372 -254.638)" fill="#95a9a7"/>
      <rect id="Rectangle_701" data-name="Rectangle 701" width="38.664" height="44.512" transform="translate(186.988 74.608)" fill="#95a9a7"/>
      <rect id="Rectangle_702" data-name="Rectangle 702" width="66.494" height="21.706" transform="translate(114.67 97.414)" fill="#95a9a7"/>
      <rect id="Rectangle_703" data-name="Rectangle 703" width="14.598" height="53.304" transform="translate(150.311 48.918)" fill="#95a9a7"/>
      <rect id="Rectangle_704" data-name="Rectangle 704" width="0.758" height="28.988" transform="translate(153.534 34.699)" fill="#95a9a7"/>
      <rect id="Rectangle_705" data-name="Rectangle 705" width="0.758" height="28.988" transform="translate(155.998 36.897)" fill="#95a9a7"/>
      <rect id="Rectangle_706" data-name="Rectangle 706" width="8.922" height="7.144" transform="translate(151.437 45.621)" fill="#95a9a7"/>
      <rect id="Rectangle_707" data-name="Rectangle 707" width="25.404" height="36.544" transform="translate(178.559 82.577)" fill="#95a9a7"/>
      <rect id="Rectangle_708" data-name="Rectangle 708" width="47.687" height="75.216" transform="translate(231.919 43.905)" fill="#95a9a7"/>
      <rect id="Rectangle_709" data-name="Rectangle 709" width="38.317" height="12.528" transform="translate(236.604 41.319)" fill="#95a9a7"/>
      <rect id="Rectangle_710" data-name="Rectangle 710" width="55.08" height="0.879" transform="translate(228.222 45.478)" fill="#95a9a7"/>
      <rect id="Rectangle_711" data-name="Rectangle 711" width="22.47" height="37.986" transform="translate(223.279 81.134)" fill="#95a9a7"/>
      <rect id="Rectangle_712" data-name="Rectangle 712" width="25.783" height="39.429" transform="translate(62.345 79.692)" fill="#95a9a7"/>
      <g id="Group_467" data-name="Group 467" transform="translate(67.689 61.832)">
        <rect id="Rectangle_713" data-name="Rectangle 713" width="51.377" height="50.144" transform="translate(2.997 7.144)" fill="#95a9a7"/>
        <rect id="Rectangle_714" data-name="Rectangle 714" width="55.701" height="1.923" transform="translate(0 5.22)" fill="#95a9a7"/>
        <rect id="Rectangle_715" data-name="Rectangle 715" width="22.578" height="10.166" transform="translate(5.272)" fill="#95a9a7"/>
        <rect id="Rectangle_716" data-name="Rectangle 716" width="3.792" height="6.182" transform="translate(35.226)" fill="#95a9a7"/>
        <rect id="Rectangle_717" data-name="Rectangle 717" width="4.171" height="6.182" transform="translate(42.809)" fill="#95a9a7"/>
      </g>
      <rect id="Rectangle_718" data-name="Rectangle 718" width="26.921" height="15.249" transform="translate(48.316 103.871)" fill="#95a9a7"/>
      <rect id="Rectangle_719" data-name="Rectangle 719" width="12.747" height="21.706" transform="translate(38.148 97.414)" fill="#95a9a7"/>
      <rect id="Rectangle_720" data-name="Rectangle 720" width="21.787" height="7.625" transform="translate(22.735 111.496)" fill="#95a9a7"/>
      <rect id="Rectangle_721" data-name="Rectangle 721" width="268.457" height="16.898" transform="translate(274.921 102.222)" fill="#95a9a7"/>
      <path id="Path_171" data-name="Path 171" d="M720.393,274.952c-1.691,0-3.077.942-3.215,2.141L713.4,277q.016-.4.016-.806a21.864,21.864,0,0,0-2.367-9.836l3.157-.842a3.428,3.428,0,0,0,2.961,1.409c1.782,0,3.227-1.047,3.227-2.338s-1.444-2.338-3.227-2.338-3.226,1.047-3.226,2.338a1.749,1.749,0,0,0,.141.685l-3.156.842a29.07,29.07,0,0,0-8.132-9.522l2.47-1.678a3.935,3.935,0,0,0,2.227.648c1.782,0,3.227-1.047,3.227-2.338s-1.444-2.338-3.227-2.338-3.226,1.047-3.226,2.338a1.993,1.993,0,0,0,.753,1.5l-2.47,1.678q-.382-.292-.776-.578a43,43,0,0,0-12.834-6.242l1.359-2.4a4.363,4.363,0,0,0,.977.109c1.782,0,3.227-1.047,3.227-2.338s-1.444-2.338-3.227-2.338-3.226,1.047-3.226,2.338a2.444,2.444,0,0,0,1.914,2.136l-1.355,2.391a52.809,52.809,0,0,0-13.473-2.077l.147-3.277.1,0c1.782,0,3.226-1.047,3.226-2.338s-1.444-2.338-3.226-2.338-3.227,1.047-3.227,2.338c0,1.177,1.2,2.152,2.766,2.313l-.148,3.291q-.555-.011-1.112-.012a53.681,53.681,0,0,0-13.052,1.582l-1.3-2.674a2.475,2.475,0,0,0,2-2.162c0-1.291-1.444-2.338-3.226-2.338s-3.226,1.047-3.226,2.338,1.444,2.338,3.226,2.338a4.386,4.386,0,0,0,.888-.09l1.3,2.676a44.226,44.226,0,0,0-13.66,6.03l-2.357-1.823a2.033,2.033,0,0,0,.85-1.581c0-1.292-1.444-2.338-3.227-2.338s-3.226,1.047-3.226,2.338,1.444,2.338,3.226,2.338a3.985,3.985,0,0,0,2.12-.576l2.354,1.82q-.4.277-.8.562A30.921,30.921,0,0,0,637.629,264l-3-1a1.75,1.75,0,0,0,.169-.744c0-1.292-1.444-2.338-3.227-2.338s-3.226,1.047-3.226,2.338,1.444,2.338,3.226,2.338a3.463,3.463,0,0,0,2.925-1.352l2.978,1a22.429,22.429,0,0,0-3.539,10.9l-3.846-.091c-.048-1.261-1.473-2.273-3.224-2.273-1.782,0-3.226,1.047-3.226,2.338s1.444,2.338,3.226,2.338c1.691,0,3.077-.943,3.215-2.143l3.844.091q-.016.4-.016.806a21.867,21.867,0,0,0,2.367,9.836l-3.156.842a3.426,3.426,0,0,0-2.961-1.409c-1.782,0-3.227,1.047-3.227,2.338s1.445,2.338,3.227,2.338,3.226-1.047,3.226-2.338a1.747,1.747,0,0,0-.141-.684l3.156-.842a29.069,29.069,0,0,0,8.132,9.522l-2.47,1.677a3.939,3.939,0,0,0-2.227-.647c-1.782,0-3.227,1.047-3.227,2.338s1.445,2.338,3.227,2.338,3.226-1.047,3.226-2.338a2,2,0,0,0-.754-1.5l2.47-1.677q.382.292.776.578a41.2,41.2,0,0,0,8.323,4.629l-19.453,25.982h-3.491v.743h-1.71V329.4H718.1v-1.475h-1.71v-.743H712.9L693.45,301.2a41.734,41.734,0,0,0,7.264-3.889l3.152,2.438a2.133,2.133,0,0,0-1.1,1.76c0,1.292,1.444,2.338,3.226,2.338s3.226-1.047,3.226-2.338-1.444-2.338-3.226-2.338a4.1,4.1,0,0,0-1.837.417l-3.175-2.455q.4-.277.8-.562A30.916,30.916,0,0,0,709.7,288.4l3.51,1.175a1.743,1.743,0,0,0-.1.573c0,1.291,1.444,2.338,3.227,2.338s3.226-1.047,3.226-2.338-1.444-2.338-3.226-2.338a3.361,3.361,0,0,0-3.021,1.515l-3.468-1.16a22.422,22.422,0,0,0,3.54-10.9l3.779.089c.046,1.262,1.472,2.274,3.224,2.274,1.781,0,3.226-1.047,3.226-2.338S722.174,274.952,720.393,274.952Zm-8.052,1.247q0,.391-.016.781l-11.129-.262c.006-.172.009-.345.009-.518a15.069,15.069,0,0,0-1.635-6.774l10.468-2.793A21.266,21.266,0,0,1,712.341,276.2Zm-11.683.506-24.828-.585a1.174,1.174,0,0,0-.076-.341l23.312-6.22a14.779,14.779,0,0,1,1.6,6.639Q700.667,276.453,700.658,276.7Zm-53.988-1.012,24.828.585a1.176,1.176,0,0,0,.076.34l-23.312,6.22a14.775,14.775,0,0,1-1.6-6.639Q646.661,275.945,646.67,275.693Zm28.694-.47,18.116-12.3a19.892,19.892,0,0,1,5.462,6.4l-23.311,6.219A1.609,1.609,0,0,0,675.363,275.223Zm-.245-.19a2.343,2.343,0,0,0-.468-.234l9.436-16.651a29.02,29.02,0,0,1,9.148,4.583Zm-.8-.332a2.963,2.963,0,0,0-.407-.063l.807-17.99a35.735,35.735,0,0,1,9.035,1.4Zm-.765-.071a2.909,2.909,0,0,0-.441.049L664.857,257.7a36.249,36.249,0,0,1,8.807-1.069q.35,0,.7.006Zm-.779.136a2.435,2.435,0,0,0-.459.2l-16.977-13.129a30.244,30.244,0,0,1,9.178-4.052Zm-.721.38a1.7,1.7,0,0,0-.279.279l-22.551-7.544a21.386,21.386,0,0,1,5.853-5.865Zm-.43.515a1.234,1.234,0,0,0-.116.358l-24.826-.585a15.221,15.221,0,0,1,2.39-7.318Zm.072,1.2a1.511,1.511,0,0,0,.208.256l-.148.2-17.91,12.162a19.9,19.9,0,0,1-5.462-6.4Zm-.482,1.177-11.244,15.019a27.593,27.593,0,0,1-5.879-3.391Zm1.223-.544a2.5,2.5,0,0,0,.239.1l-9.436,16.651q-1.363-.415-2.647-.933Zm.57.2a2.958,2.958,0,0,0,.406.063l-.807,17.991a35.736,35.736,0,0,1-9.035-1.4Zm.656,18.069q-.35,0-.7-.006l.807-17.992a2.99,2.99,0,0,0,.441-.049l8.257,16.978A36.272,36.272,0,0,1,673.664,295.767Zm.888-18.134a2.422,2.422,0,0,0,.338-.137l11.845,15.822a32.75,32.75,0,0,1-3.925,1.294Zm1.993.984,15.443,11.942a28.3,28.3,0,0,1-4.631,2.5Zm-.675-.9-.446-.6a1.653,1.653,0,0,0,.128-.145l22.551,7.544a21.386,21.386,0,0,1-5.853,5.865Zm-.167-.977a1.225,1.225,0,0,0,.116-.358l24.826.585a15.221,15.221,0,0,1-2.39,7.317ZM663.037,294.61l-4.239,7.479q-1.938-.585-3.783-1.322l5.322-7.109Q661.645,294.185,663.037,294.61Zm.331.1a36.452,36.452,0,0,0,9.222,1.432l-.362,8.068a51.379,51.379,0,0,1-13.1-2.02Zm9.58,1.441c.238,0,.476.007.715.007a36.96,36.96,0,0,0,8.986-1.092l3.708,7.624a52.248,52.248,0,0,1-12.694,1.537q-.539,0-1.077-.011Zm10.039-1.172a33.212,33.212,0,0,0,4-1.319l5.322,7.109A46.528,46.528,0,0,1,686.7,302.6Zm26.928-28.59-10.47,2.793a20.288,20.288,0,0,0-5.574-6.527l8.137-5.525A28.274,28.274,0,0,1,709.915,266.388Zm-8.9-10.008q.382.277.751.56l-8.135,5.525a29.609,29.609,0,0,0-9.336-4.677l4.238-7.479A41.817,41.817,0,0,1,701.012,256.381ZM688.2,250.209l-4.238,7.479a36.452,36.452,0,0,0-9.222-1.432l.362-8.067A51.377,51.377,0,0,1,688.2,250.209Zm-14.534-2.038q.541,0,1.077.011l-.362,8.065q-.356-.007-.715-.007a36.986,36.986,0,0,0-8.986,1.092l-3.708-7.624A52.247,52.247,0,0,1,673.664,248.171Zm-13.032,1.623,3.709,7.624a30.836,30.836,0,0,0-9.366,4.136l-7.625-5.9A43.027,43.027,0,0,1,660.632,249.795Zm-14.316,6.586q.382-.277.772-.544l7.624,5.9a21.809,21.809,0,0,0-5.973,5.986l-10.132-3.389A30.058,30.058,0,0,1,646.315,256.381Zm-7.86,8.183,10.13,3.389a15.521,15.521,0,0,0-2.44,7.468l-11.133-.262A21.817,21.817,0,0,1,638.455,264.563ZM634.987,276.2q0-.392.016-.781l11.129.262q-.009.258-.009.518a15.067,15.067,0,0,0,1.635,6.773l-10.468,2.793A21.267,21.267,0,0,1,634.987,276.2Zm2.425,9.811,10.47-2.793a20.292,20.292,0,0,0,5.574,6.527l-8.137,5.525A28.269,28.269,0,0,1,637.412,286.009Zm8.9,10.008q-.382-.277-.751-.56l8.135-5.524a28.168,28.168,0,0,0,6.015,3.467l-5.324,7.111A40.094,40.094,0,0,1,646.315,296.017Zm65.772,31.162H635.241L654.5,301.453q1.893.757,3.888,1.358l-1.359,2.4a4.364,4.364,0,0,0-.977-.109c-1.782,0-3.227,1.047-3.227,2.338s1.444,2.338,3.227,2.338,3.226-1.047,3.226-2.338a2.444,2.444,0,0,0-1.914-2.136l1.356-2.392a52.808,52.808,0,0,0,13.472,2.077l-.11,2.452c-1.747.029-3.151,1.063-3.151,2.337,0,1.291,1.444,2.338,3.226,2.338s3.227-1.047,3.227-2.338c0-1.222-1.294-2.224-2.942-2.328l.11-2.452q.555.011,1.112.011a53.705,53.705,0,0,0,13.052-1.581l1.159,2.383a2.424,2.424,0,0,0-1.858,2.118c0,1.291,1.444,2.338,3.226,2.338s3.227-1.047,3.227-2.338-1.444-2.338-3.227-2.338a4.363,4.363,0,0,0-1.035.123l-1.154-2.372a47.752,47.752,0,0,0,5.773-1.886Zm-19.15-26.667-5.324-7.111a28.909,28.909,0,0,0,4.741-2.558l7.625,5.9A40.625,40.625,0,0,1,692.938,300.512Zm8.075-4.495c-.254.184-.513.365-.772.544l-7.624-5.9a21.811,21.811,0,0,0,5.973-5.986l10.132,3.39A30.074,30.074,0,0,1,701.012,296.017Zm7.86-8.183-10.13-3.389a15.518,15.518,0,0,0,2.439-7.468l11.133.262A21.815,21.815,0,0,1,708.873,287.834Z" transform="translate(-198.451 -219.506)" fill="#95a9a7"/>
      <rect id="Rectangle_722" data-name="Rectangle 722" width="41.455" height="44.016" transform="translate(529.727 75.105)" fill="#95a9a7"/>
      <rect id="Rectangle_723" data-name="Rectangle 723" width="41.455" height="26.654" transform="translate(565.116 92.218)" fill="#95a9a7"/>
      <rect id="Rectangle_724" data-name="Rectangle 724" width="23.255" height="22.368" transform="translate(404.351 88.303)" fill="#95a9a7"/>
      <rect id="Rectangle_725" data-name="Rectangle 725" width="29.322" height="85.874" transform="translate(550.455 33.246)" fill="#95a9a7"/>
      <path id="Path_172" data-name="Path 172" d="M882.405,380.282H843.731V330.138h29.322Z" transform="translate(-254.348 -261.162)" fill="#95a9a7"/>
      <rect id="Rectangle_726" data-name="Rectangle 726" width="33.872" height="11.447" transform="translate(611.121 107.673)" fill="#95a9a7"/>
      <rect id="Rectangle_727" data-name="Rectangle 727" width="1.011" height="23.336" transform="translate(572.194 15.305)" fill="#95a9a7"/>
      <rect id="Rectangle_728" data-name="Rectangle 728" width="1.011" height="23.336" transform="translate(575.606 20.313)" fill="#95a9a7"/>
      <rect id="Rectangle_729" data-name="Rectangle 729" width="1.011" height="23.336" transform="translate(569.097 23.534)" fill="#95a9a7"/>
      <rect id="Rectangle_730" data-name="Rectangle 730" width="13.84" height="7.899" transform="translate(590.899 64.923)" fill="#95a9a7"/>
      <rect id="Rectangle_731" data-name="Rectangle 731" width="10.806" height="4.44" transform="translate(592.416 62.107)" fill="#95a9a7"/>
      <rect id="Rectangle_732" data-name="Rectangle 732" width="2.654" height="3.19" transform="translate(610.236 67.237)" fill="#95a9a7"/>
      <rect id="Rectangle_733" data-name="Rectangle 733" width="3.792" height="6.1" transform="translate(613.83 64.327)" fill="#95a9a7"/>
    </g>
    <g id="Group_474" data-name="Group 474" transform="translate(0 70.2)">
      <g id="Group_469" data-name="Group 469" transform="translate(408.866 2.659)">
        <rect id="Rectangle_734" data-name="Rectangle 734" width="35.152" height="82.108" transform="translate(3.962 5.034)" fill="#658280"/>
        <rect id="Rectangle_735" data-name="Rectangle 735" width="40.405" height="0.832" transform="translate(1.336 5.52)" fill="#658280"/>
        <rect id="Rectangle_736" data-name="Rectangle 736" width="38.218" height="0.829" transform="translate(2.429 17.054)" fill="#658280"/>
        <rect id="Rectangle_737" data-name="Rectangle 737" width="38.218" height="0.829" transform="translate(2.429 28.223)" fill="#658280"/>
        <rect id="Rectangle_738" data-name="Rectangle 738" width="38.218" height="0.829" transform="translate(2.429 39.393)" fill="#658280"/>
        <rect id="Rectangle_739" data-name="Rectangle 739" width="38.218" height="0.829" transform="translate(2.429 50.562)" fill="#658280"/>
        <rect id="Rectangle_740" data-name="Rectangle 740" width="38.218" height="0.829" transform="translate(2.429 61.732)" fill="#658280"/>
        <rect id="Rectangle_741" data-name="Rectangle 741" width="38.218" height="0.829" transform="translate(2.429 72.902)" fill="#658280"/>
        <rect id="Rectangle_742" data-name="Rectangle 742" width="43.077" height="2.269" transform="translate(0 3.252)" fill="#658280"/>
        <rect id="Rectangle_743" data-name="Rectangle 743" width="3.652" height="6.559" transform="translate(7.126 9.049)" fill="#658280" opacity="0.29"/>
        <rect id="Rectangle_744" data-name="Rectangle 744" width="3.652" height="6.559" transform="translate(15.296 9.049)" fill="#658280"/>
        <rect id="Rectangle_745" data-name="Rectangle 745" width="3.652" height="6.559" transform="translate(23.465 9.049)" fill="#658280"/>
        <rect id="Rectangle_746" data-name="Rectangle 746" width="3.652" height="6.559" transform="translate(31.635 9.049)" fill="#658280"/>
        <rect id="Rectangle_747" data-name="Rectangle 747" width="3.652" height="6.559" transform="translate(7.126 19.774)" fill="#658280"/>
        <rect id="Rectangle_748" data-name="Rectangle 748" width="3.652" height="6.559" transform="translate(15.296 19.774)" fill="#658280" opacity="0.29"/>
        <rect id="Rectangle_749" data-name="Rectangle 749" width="3.652" height="6.559" transform="translate(23.465 19.774)" fill="#658280"/>
        <rect id="Rectangle_750" data-name="Rectangle 750" width="3.652" height="6.559" transform="translate(31.635 19.774)" fill="#658280"/>
        <rect id="Rectangle_751" data-name="Rectangle 751" width="3.652" height="6.559" transform="translate(7.126 30.943)" fill="#658280"/>
        <rect id="Rectangle_752" data-name="Rectangle 752" width="3.652" height="6.559" transform="translate(15.296 30.943)" fill="#658280"/>
        <rect id="Rectangle_753" data-name="Rectangle 753" width="3.652" height="6.559" transform="translate(23.465 30.943)" fill="#658280"/>
        <rect id="Rectangle_754" data-name="Rectangle 754" width="3.652" height="6.559" transform="translate(31.635 30.943)" fill="#658280" opacity="0.29"/>
        <rect id="Rectangle_755" data-name="Rectangle 755" width="3.652" height="6.559" transform="translate(7.126 42.113)" fill="#658280"/>
        <rect id="Rectangle_756" data-name="Rectangle 756" width="3.652" height="6.559" transform="translate(15.296 42.113)" fill="#658280" opacity="0.29"/>
        <rect id="Rectangle_757" data-name="Rectangle 757" width="3.652" height="6.559" transform="translate(23.465 42.113)" fill="#658280" opacity="0.29"/>
        <rect id="Rectangle_758" data-name="Rectangle 758" width="3.652" height="6.559" transform="translate(31.635 42.113)" fill="#658280"/>
        <rect id="Rectangle_759" data-name="Rectangle 759" width="3.652" height="6.559" transform="translate(7.126 53.282)" fill="#658280" opacity="0.29"/>
        <rect id="Rectangle_760" data-name="Rectangle 760" width="3.652" height="6.559" transform="translate(15.296 53.282)" fill="#658280"/>
        <rect id="Rectangle_761" data-name="Rectangle 761" width="3.652" height="6.559" transform="translate(23.465 53.282)" fill="#658280"/>
        <rect id="Rectangle_762" data-name="Rectangle 762" width="3.652" height="6.559" transform="translate(31.635 53.282)" fill="#658280"/>
        <rect id="Rectangle_763" data-name="Rectangle 763" width="3.652" height="6.559" transform="translate(7.126 64.452)" fill="#658280"/>
        <rect id="Rectangle_764" data-name="Rectangle 764" width="3.652" height="6.559" transform="translate(15.296 64.452)" fill="#658280"/>
        <rect id="Rectangle_765" data-name="Rectangle 765" width="3.652" height="6.559" transform="translate(23.465 64.452)" fill="#658280" opacity="0.29"/>
        <rect id="Rectangle_766" data-name="Rectangle 766" width="3.652" height="6.559" transform="translate(31.635 64.452)" fill="#658280"/>
        <rect id="Rectangle_767" data-name="Rectangle 767" width="3.652" height="6.559" transform="translate(7.126 75.622)" fill="#658280"/>
        <rect id="Rectangle_768" data-name="Rectangle 768" width="3.652" height="6.559" transform="translate(15.296 75.622)" fill="#658280" opacity="0.29"/>
        <rect id="Rectangle_769" data-name="Rectangle 769" width="3.652" height="6.559" transform="translate(23.465 75.622)" fill="#658280"/>
        <rect id="Rectangle_770" data-name="Rectangle 770" width="3.652" height="6.559" transform="translate(31.635 75.622)" fill="#658280" opacity="0.29"/>
        <rect id="Rectangle_771" data-name="Rectangle 771" width="11.956" height="4.265" transform="translate(6.181 0.121)" fill="#658280"/>
        <rect id="Rectangle_772" data-name="Rectangle 772" width="13.578" height="0.729" transform="translate(5.37)" fill="#658280"/>
      </g>
      <g id="Group_470" data-name="Group 470" transform="translate(313.563 1.947)">
        <path id="Path_173" data-name="Path 173" d="M512.074,378.412H465.249V300.4l46.826-8.3Z" transform="translate(-463.191 -290.558)" fill="#658280"/>
        <rect id="Rectangle_773" data-name="Rectangle 773" width="4.114" height="79.387" transform="translate(0 8.467)" fill="#658280"/>
        <rect id="Rectangle_774" data-name="Rectangle 774" width="4.114" height="81.624" transform="translate(11.706 6.23)" fill="#658280"/>
        <rect id="Rectangle_775" data-name="Rectangle 775" width="4.114" height="83.947" transform="translate(23.413 3.907)" fill="#658280"/>
        <rect id="Rectangle_776" data-name="Rectangle 776" width="4.114" height="85.841" transform="translate(35.119 2.013)" fill="#658280"/>
        <rect id="Rectangle_777" data-name="Rectangle 777" width="4.114" height="87.854" transform="translate(46.826)" fill="#658280"/>
        <rect id="Rectangle_778" data-name="Rectangle 778" width="5.461" height="6.029" transform="translate(5.18 13.077)" fill="#658280" opacity="0.29"/>
        <rect id="Rectangle_779" data-name="Rectangle 779" width="5.461" height="6.029" transform="translate(16.886 15.129)" fill="#658280" opacity="0.29"/>
        <rect id="Rectangle_780" data-name="Rectangle 780" width="5.461" height="6.029" transform="translate(28.593 15.129)" fill="#658280"/>
        <rect id="Rectangle_781" data-name="Rectangle 781" width="5.461" height="6.029" transform="translate(40.299 15.129)" fill="#658280" opacity="0.29"/>
        <rect id="Rectangle_782" data-name="Rectangle 782" width="5.461" height="6.029" transform="translate(5.18 25.627)" fill="#658280"/>
        <rect id="Rectangle_783" data-name="Rectangle 783" width="5.461" height="6.029" transform="translate(16.886 25.627)" fill="#658280"/>
        <rect id="Rectangle_784" data-name="Rectangle 784" width="5.461" height="6.029" transform="translate(28.593 25.627)" fill="#658280" opacity="0.29"/>
        <rect id="Rectangle_785" data-name="Rectangle 785" width="5.461" height="6.029" transform="translate(40.299 25.627)" fill="#658280" opacity="0.29"/>
        <rect id="Rectangle_786" data-name="Rectangle 786" width="5.461" height="6.029" transform="translate(5.18 36.125)" fill="#658280" opacity="0.29"/>
        <rect id="Rectangle_787" data-name="Rectangle 787" width="5.461" height="6.029" transform="translate(16.886 36.125)" fill="#658280" opacity="0.29"/>
        <rect id="Rectangle_788" data-name="Rectangle 788" width="5.461" height="6.029" transform="translate(28.593 36.125)" fill="#658280" opacity="0.29"/>
        <rect id="Rectangle_789" data-name="Rectangle 789" width="5.461" height="6.029" transform="translate(40.299 36.125)" fill="#658280"/>
        <rect id="Rectangle_790" data-name="Rectangle 790" width="5.461" height="6.029" transform="translate(5.18 46.623)" fill="#658280" opacity="0.29"/>
        <rect id="Rectangle_791" data-name="Rectangle 791" width="5.461" height="6.029" transform="translate(16.886 46.623)" fill="#658280"/>
        <rect id="Rectangle_792" data-name="Rectangle 792" width="5.461" height="6.029" transform="translate(28.593 46.623)" fill="#658280" opacity="0.29"/>
        <rect id="Rectangle_793" data-name="Rectangle 793" width="5.461" height="6.029" transform="translate(40.299 46.623)" fill="#658280" opacity="0.29"/>
        <rect id="Rectangle_794" data-name="Rectangle 794" width="5.461" height="6.029" transform="translate(5.18 57.121)" fill="#658280" opacity="0.29"/>
        <rect id="Rectangle_795" data-name="Rectangle 795" width="5.461" height="6.029" transform="translate(16.886 57.121)" fill="#658280" opacity="0.29"/>
        <rect id="Rectangle_796" data-name="Rectangle 796" width="5.461" height="6.029" transform="translate(28.593 57.121)" fill="#658280"/>
        <rect id="Rectangle_797" data-name="Rectangle 797" width="5.461" height="6.029" transform="translate(40.299 57.121)" fill="#658280" opacity="0.29"/>
        <rect id="Rectangle_798" data-name="Rectangle 798" width="5.461" height="6.029" transform="translate(5.18 67.619)" fill="#658280"/>
        <rect id="Rectangle_799" data-name="Rectangle 799" width="5.461" height="6.029" transform="translate(16.886 67.619)" fill="#658280"/>
        <rect id="Rectangle_800" data-name="Rectangle 800" width="5.461" height="6.029" transform="translate(28.593 67.619)" fill="#658280" opacity="0.29"/>
        <rect id="Rectangle_801" data-name="Rectangle 801" width="5.461" height="6.029" transform="translate(40.299 67.619)" fill="#658280" opacity="0.29"/>
        <rect id="Rectangle_802" data-name="Rectangle 802" width="5.461" height="6.029" transform="translate(5.18 78.117)" fill="#658280" opacity="0.29"/>
        <rect id="Rectangle_803" data-name="Rectangle 803" width="5.461" height="6.029" transform="translate(16.886 78.117)" fill="#658280"/>
        <rect id="Rectangle_804" data-name="Rectangle 804" width="5.461" height="6.029" transform="translate(28.593 78.117)" fill="#658280" opacity="0.29"/>
        <rect id="Rectangle_805" data-name="Rectangle 805" width="5.461" height="6.029" transform="translate(40.299 78.117)" fill="#658280"/>
      </g>
      <path id="Path_174" data-name="Path 174" d="M281.145,314.364v.81h-1.113v2.308h19.593V388.64H267.473V315.174h-1.167v-.81Z" transform="translate(-99.103 -298.84)" fill="#658280"/>
      <rect id="Rectangle_806" data-name="Rectangle 806" width="27.54" height="41.954" transform="translate(236.817 47.846)" fill="#658280"/>
      <g id="Group_471" data-name="Group 471" transform="translate(116.783 36.159)">
        <rect id="Rectangle_807" data-name="Rectangle 807" width="22.387" height="51.572" transform="translate(0 2.07)" fill="#658280"/>
        <rect id="Rectangle_808" data-name="Rectangle 808" width="24.396" height="40.826" transform="translate(17.952 12.815)" fill="#658280"/>
        <rect id="Rectangle_809" data-name="Rectangle 809" width="9.898" height="6.172" transform="translate(8.054)" fill="#658280"/>
        <rect id="Rectangle_810" data-name="Rectangle 810" width="26.006" height="1.51" transform="translate(19.627 12.143)" fill="#658280"/>
      </g>
      <rect id="Rectangle_811" data-name="Rectangle 811" width="27.352" height="23.315" transform="translate(156.511 66.485)" fill="#658280"/>
      <rect id="Rectangle_812" data-name="Rectangle 812" width="22.249" height="42.28" transform="translate(68.112 47.52)" fill="#658280"/>
      <rect id="Rectangle_813" data-name="Rectangle 813" width="29.27" height="21.21" transform="translate(48.805 68.59)" fill="#658280"/>
      <rect id="Rectangle_814" data-name="Rectangle 814" width="18.308" height="24.677" transform="translate(16.575 65.124)" fill="#658280"/>
      <rect id="Rectangle_815" data-name="Rectangle 815" width="43.271" height="7.73" transform="translate(31.329 82.071)" fill="#658280"/>
      <rect id="Rectangle_816" data-name="Rectangle 816" width="22.178" height="10.228" transform="translate(0 79.573)" fill="#658280"/>
      <rect id="Rectangle_817" data-name="Rectangle 817" width="34.477" height="15.605" transform="translate(90.361 74.196)" fill="#658280"/>
      <rect id="Rectangle_818" data-name="Rectangle 818" width="53.704" height="6.722" transform="translate(191.495 83.078)" fill="#658280"/>
      <rect id="Rectangle_819" data-name="Rectangle 819" width="53.704" height="6.722" transform="translate(286.711 83.078)" fill="#658280"/>
      <path id="Path_175" data-name="Path 175" d="M358.163,402.817H337.751l-8.632,23.1h29.045Z" transform="translate(-115.056 -339.474)" fill="#658280"/>
      <rect id="Rectangle_820" data-name="Rectangle 820" width="0.569" height="25.622" transform="translate(252.542 29.737)" fill="#658280"/>
      <rect id="Rectangle_821" data-name="Rectangle 821" width="0.758" height="15.118" transform="translate(255.385 38.407)" fill="#658280"/>
      <rect id="Rectangle_822" data-name="Rectangle 822" width="10.327" height="7.484" transform="translate(251.322 41.086)" fill="#658280"/>
      <rect id="Rectangle_823" data-name="Rectangle 823" width="13.678" height="0.67" transform="translate(249.579 40.505)" fill="#658280"/>
      <rect id="Rectangle_824" data-name="Rectangle 824" width="33.369" height="21.64" transform="translate(259.348 68.161)" fill="#658280"/>
      <rect id="Rectangle_825" data-name="Rectangle 825" width="21.438" height="41.754" transform="translate(286.336 44.339)" fill="#658280"/>
      <rect id="Rectangle_826" data-name="Rectangle 826" width="34.252" height="37.612" transform="translate(370.064 52.188)" fill="#658280"/>
      <rect id="Rectangle_827" data-name="Rectangle 827" width="39.052" height="13.859" transform="translate(359.323 75.942)" fill="#658280"/>
      <rect id="Rectangle_828" data-name="Rectangle 828" width="25.394" height="4.961" transform="translate(402.419 84.84)" fill="#658280"/>
      <rect id="Rectangle_829" data-name="Rectangle 829" width="41.288" height="13.859" transform="translate(441.532 75.942)" fill="#658280"/>
      <g id="Group_472" data-name="Group 472" transform="translate(456.654 32.512)">
        <rect id="Rectangle_830" data-name="Rectangle 830" width="51.377" height="50.144" transform="translate(52.704 57.288) rotate(180)" fill="#658280"/>
        <rect id="Rectangle_831" data-name="Rectangle 831" width="55.701" height="1.923" transform="translate(55.701 7.144) rotate(180)" fill="#658280"/>
        <rect id="Rectangle_832" data-name="Rectangle 832" width="22.578" height="10.166" transform="translate(50.429 10.166) rotate(180)" fill="#658280"/>
        <rect id="Rectangle_833" data-name="Rectangle 833" width="3.792" height="6.182" transform="translate(20.475 6.182) rotate(180)" fill="#658280"/>
        <rect id="Rectangle_834" data-name="Rectangle 834" width="4.171" height="6.182" transform="translate(12.892 6.182) rotate(180)" fill="#658280"/>
      </g>
      <g id="Group_473" data-name="Group 473" transform="translate(543.521 0)">
        <rect id="Rectangle_835" data-name="Rectangle 835" width="40.668" height="73.234" transform="translate(41.824 89.801) rotate(180)" fill="#658280"/>
        <rect id="Rectangle_836" data-name="Rectangle 836" width="42.979" height="2.07" transform="translate(42.979 17.378) rotate(180)" fill="#658280"/>
        <rect id="Rectangle_837" data-name="Rectangle 837" width="37.934" height="9.839" transform="translate(40.457 22.497) rotate(180)" fill="#658280"/>
        <rect id="Rectangle_838" data-name="Rectangle 838" width="15.021" height="10.75" transform="translate(37.553 19.382) rotate(180)" fill="#658280"/>
        <path id="Path_176" data-name="Path 176" d="M809.421,302.412h8.693v-5.659h-6.235Z" transform="translate(-780.561 -290.75)" fill="#658280"/>
        <rect id="Rectangle_839" data-name="Rectangle 839" width="0.843" height="12.604" transform="translate(34.049 13.911) rotate(180)" fill="#658280"/>
        <path id="Path_177" data-name="Path 177" d="M814.8,286.3a.765.765,0,1,0,.757-.654A.711.711,0,0,0,814.8,286.3Z" transform="translate(-781.926 -285.648)" fill="#658280"/>
      </g>
      <rect id="Rectangle_840" data-name="Rectangle 840" width="18.2" height="30.233" transform="translate(579.777 59.568)" fill="#658280"/>
      <rect id="Rectangle_841" data-name="Rectangle 841" width="20.756" height="44.972" transform="translate(527.935 44.828)" fill="#658280"/>
      <path id="Path_178" data-name="Path 178" d="M753.813,431.317H724.576V407.264l24.677,7.923Z" transform="translate(-215.492 -341.517)" fill="#658280"/>
      <rect id="Rectangle_842" data-name="Rectangle 842" width="44.651" height="13.064" transform="translate(592.001 76.737)" fill="#658280"/>
      <rect id="Rectangle_843" data-name="Rectangle 843" width="25.937" height="52.148" transform="translate(620.158 37.653)" fill="#658280"/>
      <rect id="Rectangle_844" data-name="Rectangle 844" width="42.972" height="9.737" transform="translate(640.028 80.064)" fill="#658280"/>
      <rect id="Rectangle_845" data-name="Rectangle 845" width="28.452" height="1.709" transform="translate(618.831 36.698)" fill="#658280"/>
      <rect id="Rectangle_846" data-name="Rectangle 846" width="0.569" height="10.509" transform="translate(642.05 29.34)" fill="#658280"/>
      <rect id="Rectangle_847" data-name="Rectangle 847" width="0.569" height="8.43" transform="translate(638.259 30.67)" fill="#658280"/>
      <path id="Path_179" data-name="Path 179" d="M917.168,391.635H905.6v23.892H922.1Z" transform="translate(-261.468 -334.337)" fill="#658280"/>
    </g>
  </g>
</svg>
