<svg xmlns="http://www.w3.org/2000/svg" width="964.759" height="311.879" viewBox="0 0 964.759 311.879">
  <g id="Group_475" data-name="Group 475" transform="translate(-42.18 -155.796)" opacity="0.34">
    <g id="Group_466" data-name="Group 466" transform="translate(180.133 155.796)">
      <g id="Group_464" data-name="Group 464" transform="translate(124.448 54.187)">
        <rect id="Rectangle_615" data-name="Rectangle 615" width="42.572" height="169.454" transform="translate(1.136 47.503)" fill="#b5c3c2"/>
        <rect id="Rectangle_616" data-name="Rectangle 616" width="28.66" height="71.21" transform="translate(8.092 35.354)" fill="#b5c3c2"/>
        <rect id="Rectangle_617" data-name="Rectangle 617" width="15.897" height="39.499" transform="translate(14.473 27.648)" fill="#b5c3c2"/>
        <path id="Path_161" data-name="Path 161" d="M318.159,254.088H307.325V227.17h10.834Z" transform="translate(-290.32 -206.144)" fill="#b5c3c2"/>
        <g id="Group_463" data-name="Group 463" transform="translate(20.533)">
          <path id="Path_162" data-name="Path 162" d="M311.848,242.965h-1.175V216.047h1.175Z" transform="translate(-310.673 -206.742)" fill="#b5c3c2"/>
          <path id="Path_163" data-name="Path 163" d="M314.318,234.135h-1.175V207.217h1.175Z" transform="translate(-310.54 -207.217)" fill="#b5c3c2"/>
        </g>
        <rect id="Rectangle_618" data-name="Rectangle 618" width="44.843" height="1.804" transform="translate(0 47.069)" fill="#b5c3c2"/>
        <rect id="Rectangle_619" data-name="Rectangle 619" width="30.751" height="1.737" transform="translate(7.046 34.486)" fill="#b5c3c2"/>
        <rect id="Rectangle_620" data-name="Rectangle 620" width="17.722" height="1.333" transform="translate(13.314 26.918)" fill="#b5c3c2"/>
        <rect id="Rectangle_621" data-name="Rectangle 621" width="1.332" height="7.462" transform="translate(10.727 38.244)" fill="#b5c3c2" opacity="0.29"/>
        <rect id="Rectangle_622" data-name="Rectangle 622" width="1.333" height="7.462" transform="translate(14.414 38.244)" fill="#b5c3c2" opacity="0.29"/>
        <rect id="Rectangle_623" data-name="Rectangle 623" width="1.333" height="7.462" transform="translate(18.1 38.244)" fill="#b5c3c2" opacity="0.29"/>
        <rect id="Rectangle_624" data-name="Rectangle 624" width="1.333" height="7.462" transform="translate(21.787 38.244)" fill="#b5c3c2" opacity="0.29"/>
        <rect id="Rectangle_625" data-name="Rectangle 625" width="1.333" height="7.462" transform="translate(25.473 38.244)" fill="#b5c3c2" opacity="0.29"/>
        <rect id="Rectangle_626" data-name="Rectangle 626" width="1.333" height="7.462" transform="translate(29.16 38.244)" fill="#b5c3c2" opacity="0.29"/>
        <rect id="Rectangle_627" data-name="Rectangle 627" width="1.333" height="7.462" transform="translate(32.846 38.244)" fill="#b5c3c2" opacity="0.29"/>
        <rect id="Rectangle_628" data-name="Rectangle 628" width="3.219" height="8.852" transform="translate(4.872 54.259)" fill="#b5c3c2"/>
        <rect id="Rectangle_629" data-name="Rectangle 629" width="3.219" height="8.852" transform="translate(11.248 54.259)" fill="#b5c3c2" opacity="0.29"/>
        <rect id="Rectangle_630" data-name="Rectangle 630" width="3.219" height="8.852" transform="translate(17.624 54.259)" fill="#b5c3c2"/>
        <rect id="Rectangle_631" data-name="Rectangle 631" width="3.219" height="8.852" transform="translate(24 54.259)" fill="#b5c3c2"/>
        <rect id="Rectangle_632" data-name="Rectangle 632" width="3.219" height="8.852" transform="translate(30.376 54.259)" fill="#b5c3c2"/>
        <rect id="Rectangle_633" data-name="Rectangle 633" width="3.219" height="8.852" transform="translate(36.751 54.259)" fill="#b5c3c2"/>
        <rect id="Rectangle_634" data-name="Rectangle 634" width="3.219" height="8.852" transform="translate(4.872 68.058)" fill="#b5c3c2"/>
        <rect id="Rectangle_635" data-name="Rectangle 635" width="3.219" height="8.852" transform="translate(11.248 68.058)" fill="#b5c3c2"/>
        <rect id="Rectangle_636" data-name="Rectangle 636" width="3.219" height="8.852" transform="translate(17.624 68.058)" fill="#b5c3c2"/>
        <rect id="Rectangle_637" data-name="Rectangle 637" width="3.219" height="8.852" transform="translate(24 68.058)" fill="#b5c3c2" opacity="0.29"/>
        <rect id="Rectangle_638" data-name="Rectangle 638" width="3.219" height="8.852" transform="translate(30.376 68.058)" fill="#b5c3c2"/>
        <rect id="Rectangle_639" data-name="Rectangle 639" width="3.219" height="8.852" transform="translate(36.751 68.058)" fill="#b5c3c2"/>
        <rect id="Rectangle_640" data-name="Rectangle 640" width="3.219" height="8.852" transform="translate(4.872 81.857)" fill="#b5c3c2"/>
        <rect id="Rectangle_641" data-name="Rectangle 641" width="3.219" height="8.852" transform="translate(11.248 81.857)" fill="#b5c3c2"/>
        <rect id="Rectangle_642" data-name="Rectangle 642" width="3.219" height="8.852" transform="translate(17.624 81.857)" fill="#b5c3c2"/>
        <rect id="Rectangle_643" data-name="Rectangle 643" width="3.219" height="8.852" transform="translate(24 81.857)" fill="#b5c3c2"/>
        <rect id="Rectangle_644" data-name="Rectangle 644" width="3.219" height="8.852" transform="translate(30.376 81.857)" fill="#b5c3c2" opacity="0.29"/>
        <rect id="Rectangle_645" data-name="Rectangle 645" width="3.219" height="8.852" transform="translate(36.751 81.857)" fill="#b5c3c2" opacity="0.29"/>
        <rect id="Rectangle_646" data-name="Rectangle 646" width="3.219" height="8.853" transform="translate(4.872 95.656)" fill="#b5c3c2" opacity="0.29"/>
        <rect id="Rectangle_647" data-name="Rectangle 647" width="3.219" height="8.853" transform="translate(11.248 95.656)" fill="#b5c3c2"/>
        <rect id="Rectangle_648" data-name="Rectangle 648" width="3.219" height="8.853" transform="translate(17.624 95.656)" fill="#b5c3c2"/>
        <rect id="Rectangle_649" data-name="Rectangle 649" width="3.219" height="8.853" transform="translate(24 95.656)" fill="#b5c3c2"/>
        <rect id="Rectangle_650" data-name="Rectangle 650" width="3.219" height="8.853" transform="translate(30.376 95.656)" fill="#b5c3c2"/>
        <rect id="Rectangle_651" data-name="Rectangle 651" width="3.219" height="8.853" transform="translate(36.751 95.656)" fill="#b5c3c2"/>
        <rect id="Rectangle_652" data-name="Rectangle 652" width="3.219" height="8.853" transform="translate(4.872 109.455)" fill="#b5c3c2"/>
        <rect id="Rectangle_653" data-name="Rectangle 653" width="3.219" height="8.853" transform="translate(11.248 109.455)" fill="#b5c3c2" opacity="0.29"/>
        <rect id="Rectangle_654" data-name="Rectangle 654" width="3.219" height="8.853" transform="translate(17.624 109.455)" fill="#b5c3c2"/>
        <rect id="Rectangle_655" data-name="Rectangle 655" width="3.219" height="8.853" transform="translate(24 109.455)" fill="#b5c3c2" opacity="0.29"/>
        <rect id="Rectangle_656" data-name="Rectangle 656" width="3.219" height="8.853" transform="translate(30.376 109.455)" fill="#b5c3c2"/>
        <rect id="Rectangle_657" data-name="Rectangle 657" width="3.219" height="8.853" transform="translate(36.751 109.455)" fill="#b5c3c2"/>
        <rect id="Rectangle_658" data-name="Rectangle 658" width="3.219" height="8.853" transform="translate(4.872 123.253)" fill="#b5c3c2"/>
        <rect id="Rectangle_659" data-name="Rectangle 659" width="3.219" height="8.853" transform="translate(11.248 123.253)" fill="#b5c3c2"/>
        <rect id="Rectangle_660" data-name="Rectangle 660" width="3.219" height="8.853" transform="translate(17.624 123.253)" fill="#b5c3c2"/>
        <rect id="Rectangle_661" data-name="Rectangle 661" width="3.219" height="8.853" transform="translate(24 123.253)" fill="#b5c3c2"/>
        <rect id="Rectangle_662" data-name="Rectangle 662" width="3.219" height="8.853" transform="translate(30.376 123.253)" fill="#b5c3c2"/>
        <rect id="Rectangle_663" data-name="Rectangle 663" width="3.219" height="8.853" transform="translate(36.751 123.253)" fill="#b5c3c2" opacity="0.29"/>
        <rect id="Rectangle_664" data-name="Rectangle 664" width="3.219" height="8.852" transform="translate(4.872 137.052)" fill="#b5c3c2"/>
        <rect id="Rectangle_665" data-name="Rectangle 665" width="3.219" height="8.852" transform="translate(11.248 137.052)" fill="#b5c3c2" opacity="0.29"/>
        <rect id="Rectangle_666" data-name="Rectangle 666" width="3.219" height="8.852" transform="translate(17.624 137.052)" fill="#b5c3c2" opacity="0.29"/>
        <rect id="Rectangle_667" data-name="Rectangle 667" width="3.219" height="8.852" transform="translate(24 137.052)" fill="#b5c3c2"/>
        <rect id="Rectangle_668" data-name="Rectangle 668" width="3.219" height="8.852" transform="translate(30.376 137.052)" fill="#b5c3c2"/>
        <rect id="Rectangle_669" data-name="Rectangle 669" width="3.219" height="8.852" transform="translate(36.751 137.052)" fill="#b5c3c2"/>
        <rect id="Rectangle_670" data-name="Rectangle 670" width="3.219" height="8.852" transform="translate(4.872 150.851)" fill="#b5c3c2"/>
        <rect id="Rectangle_671" data-name="Rectangle 671" width="3.219" height="8.852" transform="translate(11.248 150.851)" fill="#b5c3c2"/>
        <rect id="Rectangle_672" data-name="Rectangle 672" width="3.219" height="8.852" transform="translate(17.624 150.851)" fill="#b5c3c2"/>
        <rect id="Rectangle_673" data-name="Rectangle 673" width="3.219" height="8.852" transform="translate(24 150.851)" fill="#b5c3c2"/>
        <rect id="Rectangle_674" data-name="Rectangle 674" width="3.219" height="8.852" transform="translate(30.376 150.851)" fill="#b5c3c2" opacity="0.29"/>
        <rect id="Rectangle_675" data-name="Rectangle 675" width="3.219" height="8.852" transform="translate(36.751 150.851)" fill="#b5c3c2"/>
        <rect id="Rectangle_676" data-name="Rectangle 676" width="3.219" height="8.852" transform="translate(4.872 164.65)" fill="#b5c3c2"/>
        <rect id="Rectangle_677" data-name="Rectangle 677" width="3.219" height="8.852" transform="translate(11.248 164.65)" fill="#b5c3c2" opacity="0.29"/>
        <rect id="Rectangle_678" data-name="Rectangle 678" width="3.219" height="8.852" transform="translate(17.624 164.65)" fill="#b5c3c2"/>
        <rect id="Rectangle_679" data-name="Rectangle 679" width="3.219" height="8.852" transform="translate(24 164.65)" fill="#b5c3c2"/>
        <rect id="Rectangle_680" data-name="Rectangle 680" width="3.219" height="8.852" transform="translate(30.376 164.65)" fill="#b5c3c2"/>
        <rect id="Rectangle_681" data-name="Rectangle 681" width="3.219" height="8.852" transform="translate(36.751 164.65)" fill="#b5c3c2"/>
        <rect id="Rectangle_682" data-name="Rectangle 682" width="3.219" height="8.852" transform="translate(4.872 178.449)" fill="#b5c3c2"/>
        <rect id="Rectangle_683" data-name="Rectangle 683" width="3.219" height="8.852" transform="translate(11.248 178.449)" fill="#b5c3c2"/>
        <rect id="Rectangle_684" data-name="Rectangle 684" width="3.219" height="8.852" transform="translate(17.624 178.449)" fill="#b5c3c2"/>
        <rect id="Rectangle_685" data-name="Rectangle 685" width="3.219" height="8.852" transform="translate(24 178.449)" fill="#b5c3c2" opacity="0.29"/>
        <rect id="Rectangle_686" data-name="Rectangle 686" width="3.219" height="8.852" transform="translate(30.376 178.449)" fill="#b5c3c2"/>
        <rect id="Rectangle_687" data-name="Rectangle 687" width="3.219" height="8.852" transform="translate(36.751 178.449)" fill="#b5c3c2" opacity="0.29"/>
        <rect id="Rectangle_688" data-name="Rectangle 688" width="3.219" height="8.852" transform="translate(4.872 192.248)" fill="#b5c3c2" opacity="0.29"/>
        <rect id="Rectangle_689" data-name="Rectangle 689" width="3.219" height="8.852" transform="translate(11.248 192.248)" fill="#b5c3c2"/>
        <rect id="Rectangle_690" data-name="Rectangle 690" width="3.219" height="8.852" transform="translate(17.624 192.248)" fill="#b5c3c2" opacity="0.29"/>
        <rect id="Rectangle_691" data-name="Rectangle 691" width="3.219" height="8.852" transform="translate(24 192.248)" fill="#b5c3c2"/>
        <rect id="Rectangle_692" data-name="Rectangle 692" width="3.219" height="8.852" transform="translate(30.376 192.248)" fill="#b5c3c2"/>
        <rect id="Rectangle_693" data-name="Rectangle 693" width="3.219" height="8.852" transform="translate(36.751 192.248)" fill="#b5c3c2"/>
      </g>
      <g id="Group_465" data-name="Group 465" transform="translate(0 75.842)">
        <rect id="Rectangle_694" data-name="Rectangle 694" width="68.435" height="142.75" transform="translate(1.944 32.293)" fill="#b5c3c2"/>
        <rect id="Rectangle_695" data-name="Rectangle 695" width="72.324" height="4.035" transform="translate(0 29.838)" fill="#b5c3c2"/>
        <rect id="Rectangle_696" data-name="Rectangle 696" width="63.835" height="19.178" transform="translate(4.245 24.674)" fill="#b5c3c2"/>
        <rect id="Rectangle_697" data-name="Rectangle 697" width="25.278" height="20.954" transform="translate(9.131 16.827)" fill="#b5c3c2"/>
        <path id="Path_164" data-name="Path 164" d="M196.385,249.9H181.757v-11.03h10.492Z" transform="translate(-172.626 -227.17)" fill="#b5c3c2"/>
        <rect id="Rectangle_698" data-name="Rectangle 698" width="1.418" height="24.569" transform="translate(15.027 2.547)" fill="#b5c3c2"/>
        <path id="Path_165" data-name="Path 165" d="M189.363,229.04a1.273,1.273,0,1,1-1.273-1.273A1.273,1.273,0,0,1,189.363,229.04Z" transform="translate(-172.353 -227.767)" fill="#b5c3c2"/>
      </g>
      <path id="Path_166" data-name="Path 166" d="M781.966,414.9H707.055l-9.348-209.881,84.259,17.49Z" transform="translate(-144.875 -153.148)" fill="#b5c3c2"/>
      <path id="Path_167" data-name="Path 167" d="M471.418,297.687V227.518H459.67v-18.8h-4.2V181.157H432.348V160.9H430.29v20.26h-4.53V155.8H423.7v25.361H409.084v46.361h-7.552v70.168h-6.473V425.494h80.91V297.687Z" transform="translate(-161.153 -155.796)" fill="#b5c3c2"/>
    </g>
    <rect id="Rectangle_699" data-name="Rectangle 699" width="895.053" height="21.288" transform="translate(86.434 414.945)" fill="#b5c3c2"/>
    <path id="Path_168" data-name="Path 168" d="M586.163,421.021H546.529l15.443-79.366h24.191Z" transform="translate(27.126 9.996)" fill="#95a9a7"/>
    <g id="Group_468" data-name="Group 468" transform="translate(54.32 205.064)">
      <rect id="Rectangle_700" data-name="Rectangle 700" width="939.766" height="33.567" transform="translate(0 229.044)" fill="#95a9a7"/>
      <path id="Path_169" data-name="Path 169" d="M556.715,281.637V246.467H543.989V233.078h-6.809V221.831h-2.389V202.55h-.617v19.281h-2.389v11.247h-6.809v13.389H512.347v35.169h-2.625v63.851H490.142v72.787h69.1V281.637Z" transform="translate(-30.227 -202.55)" fill="#95a9a7"/>
      <path id="Path_170" data-name="Path 170" d="M625.866,315.937h-61.6v1.12h2.787V421.214h56.023V317.057h2.787Z" transform="translate(-26.24 -196.451)" fill="#95a9a7"/>
      <rect id="Rectangle_701" data-name="Rectangle 701" width="54.614" height="86.764" transform="translate(264.127 145.43)" fill="#95a9a7"/>
      <rect id="Rectangle_702" data-name="Rectangle 702" width="93.925" height="42.311" transform="translate(161.974 189.883)" fill="#95a9a7"/>
      <rect id="Rectangle_703" data-name="Rectangle 703" width="20.62" height="103.903" transform="translate(212.319 95.353)" fill="#95a9a7"/>
      <rect id="Rectangle_704" data-name="Rectangle 704" width="1.071" height="56.504" transform="translate(216.872 67.637)" fill="#95a9a7"/>
      <rect id="Rectangle_705" data-name="Rectangle 705" width="1.071" height="56.504" transform="translate(220.353 71.921)" fill="#95a9a7"/>
      <rect id="Rectangle_706" data-name="Rectangle 706" width="12.603" height="13.925" transform="translate(213.909 88.926)" fill="#95a9a7"/>
      <rect id="Rectangle_707" data-name="Rectangle 707" width="35.884" height="71.232" transform="translate(252.22 160.962)" fill="#95a9a7"/>
      <rect id="Rectangle_708" data-name="Rectangle 708" width="67.359" height="146.613" transform="translate(327.593 85.58)" fill="#95a9a7"/>
      <rect id="Rectangle_709" data-name="Rectangle 709" width="54.124" height="24.419" transform="translate(334.211 80.542)" fill="#95a9a7"/>
      <rect id="Rectangle_710" data-name="Rectangle 710" width="77.802" height="1.714" transform="translate(322.372 88.648)" fill="#95a9a7"/>
      <rect id="Rectangle_711" data-name="Rectangle 711" width="31.739" height="74.044" transform="translate(315.389 158.15)" fill="#95a9a7"/>
      <rect id="Rectangle_712" data-name="Rectangle 712" width="36.42" height="76.856" transform="translate(88.064 155.338)" fill="#95a9a7"/>
      <g id="Group_467" data-name="Group 467" transform="translate(95.613 120.525)">
        <rect id="Rectangle_713" data-name="Rectangle 713" width="72.571" height="97.743" transform="translate(4.234 13.925)" fill="#95a9a7"/>
        <rect id="Rectangle_714" data-name="Rectangle 714" width="78.68" height="3.749" transform="translate(0 10.176)" fill="#95a9a7"/>
        <rect id="Rectangle_715" data-name="Rectangle 715" width="31.892" height="19.816" transform="translate(7.447)" fill="#95a9a7"/>
        <rect id="Rectangle_716" data-name="Rectangle 716" width="5.356" height="12.051" transform="translate(49.758)" fill="#95a9a7"/>
        <rect id="Rectangle_717" data-name="Rectangle 717" width="5.891" height="12.051" transform="translate(60.47)" fill="#95a9a7"/>
      </g>
      <rect id="Rectangle_718" data-name="Rectangle 718" width="38.026" height="29.725" transform="translate(68.248 202.469)" fill="#95a9a7"/>
      <rect id="Rectangle_719" data-name="Rectangle 719" width="18.006" height="42.311" transform="translate(53.885 189.883)" fill="#95a9a7"/>
      <rect id="Rectangle_720" data-name="Rectangle 720" width="30.775" height="14.862" transform="translate(32.113 217.331)" fill="#95a9a7"/>
      <rect id="Rectangle_721" data-name="Rectangle 721" width="379.203" height="32.938" transform="translate(388.334 199.256)" fill="#95a9a7"/>
      <path id="Path_171" data-name="Path 171" d="M760.305,308.642a4.558,4.558,0,0,0-4.541,4.174l-5.336-.173q.022-.784.022-1.571a56.191,56.191,0,0,0-3.344-19.173l4.459-1.642a4.546,4.546,0,1,0-.175-.475l-4.457,1.641a55.879,55.879,0,0,0-11.486-18.56l3.489-3.27a4.541,4.541,0,1,0-.347-.369l-3.489,3.27q-.539-.569-1.1-1.128A56.086,56.086,0,0,0,715.875,259.2l1.919-4.672a4.561,4.561,0,1,0-.473-.18l-1.915,4.661a55.969,55.969,0,0,0-19.03-4.049l.208-6.387c.048,0,.1,0,.145,0a4.564,4.564,0,1,0-.65-.047l-.209,6.415q-.784-.022-1.571-.023A56.217,56.217,0,0,0,675.863,258l-1.837-5.213a4.593,4.593,0,1,0-.479.165l1.838,5.215a55.839,55.839,0,0,0-19.3,11.754l-3.33-3.553a4.6,4.6,0,1,0-.364.352l3.325,3.548q-.569.539-1.126,1.095A56.2,56.2,0,0,0,643.4,287.3l-4.232-1.954a4.551,4.551,0,1,0-.188.471l4.207,1.942a55.886,55.886,0,0,0-5,21.24l-5.432-.177a4.553,4.553,0,1,0-.014.506l5.43.177q-.022.784-.022,1.571a56.2,56.2,0,0,0,3.344,19.173l-4.459,1.642a4.55,4.55,0,1,0,.175.475l4.458-1.642a55.882,55.882,0,0,0,11.486,18.561l-3.489,3.269a4.542,4.542,0,1,0,.347.369l3.489-3.269q.539.569,1.1,1.126a56.452,56.452,0,0,0,11.756,9.024l-27.477,50.645h-4.932v1.448h-2.415v2.876H757.072v-2.876h-2.415v-1.448h-4.932L722.248,359.8a56.306,56.306,0,0,0,10.261-7.581l4.452,4.751a4.559,4.559,0,1,0,.4-.313l-4.485-4.785q.569-.541,1.126-1.1a56.179,56.179,0,0,0,11.2-15.929l4.958,2.29a4.558,4.558,0,1,0,.153-.488l-4.9-2.26a55.869,55.869,0,0,0,5-21.24l5.337.174a4.556,4.556,0,1,0,4.554-4.681Zm-11.374,2.43q0,.762-.022,1.522l-15.72-.511c.008-.336.013-.672.013-1.011a38.712,38.712,0,0,0-2.309-13.2l14.787-5.444A54.651,54.651,0,0,1,748.932,311.072Zm-16.5.986-35.07-1.14a3.057,3.057,0,0,0-.107-.664l32.929-12.124a37.97,37.97,0,0,1,2.261,12.942Q732.442,311.567,732.429,312.058Zm-76.26-1.973,35.07,1.14a3.059,3.059,0,0,0,.107.663l-32.929,12.124a37.959,37.959,0,0,1-2.261-12.94Q656.156,310.577,656.169,310.086Zm40.531-.917,25.59-23.979A38.218,38.218,0,0,1,730,297.656l-32.928,12.123A3.1,3.1,0,0,0,696.7,309.169Zm-.346-.37a3.083,3.083,0,0,0-.661-.455l13.329-32.458a38.289,38.289,0,0,1,12.923,8.934Zm-1.129-.648a3.128,3.128,0,0,0-.574-.122l1.14-35.068a37.889,37.889,0,0,1,12.762,2.733Zm-1.08-.139a3.032,3.032,0,0,0-.623.1l-11.663-33.094a37.969,37.969,0,0,1,12.44-2.084q.495,0,.986.013Zm-1.1.264a3.07,3.07,0,0,0-.648.4l-23.98-25.591a38.2,38.2,0,0,1,12.964-7.9Zm-1.018.741a3.05,3.05,0,0,0-.394.545l-31.854-14.7a38.336,38.336,0,0,1,8.268-11.431Zm-.607,1a3.081,3.081,0,0,0-.164.7l-35.068-1.14a37.9,37.9,0,0,1,3.376-14.264Zm.1,2.343a2.963,2.963,0,0,0,.294.5l-.209.385-25.3,23.706a38.241,38.241,0,0,1-7.715-12.466Zm-.681,2.3-15.883,29.275a38.385,38.385,0,0,1-8.3-6.61Zm1.727-1.06a3.1,3.1,0,0,0,.337.2l-13.329,32.458a38.267,38.267,0,0,1-3.739-1.819Zm.805.394a3.125,3.125,0,0,0,.574.122l-1.14,35.068a37.892,37.892,0,0,1-12.762-2.733Zm.926,35.222q-.495,0-.986-.013l1.14-35.071a3.111,3.111,0,0,0,.623-.095l11.663,33.094A37.993,37.993,0,0,1,694.3,349.215Zm1.254-35.348a2.982,2.982,0,0,0,.477-.268l16.731,30.84a38.117,38.117,0,0,1-5.544,2.523Zm2.815,1.918,21.813,23.278a38.3,38.3,0,0,1-6.541,4.872Zm-.954-1.759-.63-1.162a3.166,3.166,0,0,0,.181-.282l31.854,14.706a38.333,38.333,0,0,1-8.268,11.431Zm-.236-1.9a3.062,3.062,0,0,0,.164-.7l35.068,1.14a37.9,37.9,0,0,1-3.376,14.263Zm-17.89,34.838L673.3,361.539a54.241,54.241,0,0,1-5.344-2.577l7.518-13.856A38.592,38.592,0,0,0,679.288,346.96Zm.468.192a38.65,38.65,0,0,0,13.027,2.79l-.511,15.726a54.453,54.453,0,0,1-18.5-3.937Zm13.533,2.809c.336.009.672.014,1.011.014a38.714,38.714,0,0,0,12.693-2.129l5.238,14.862a54.715,54.715,0,0,1-17.931,3c-.508,0-1.016-.008-1.522-.022Zm14.181-2.284a38.636,38.636,0,0,0,5.655-2.571l7.518,13.856a54.029,54.029,0,0,1-7.934,3.578Zm38.036-55.728-14.789,5.445a38.979,38.979,0,0,0-7.873-12.723l11.494-10.77A54.359,54.359,0,0,1,745.506,291.949ZM732.93,272.441q.539.539,1.061,1.091L722.5,284.3a39.065,39.065,0,0,0-13.188-9.117l5.987-14.578A54.541,54.541,0,0,1,732.93,272.441Zm-18.1-12.029-5.987,14.579a38.651,38.651,0,0,0-13.027-2.79l.511-15.725A54.453,54.453,0,0,1,714.829,260.412ZM694.3,256.44q.764,0,1.522.021l-.511,15.721q-.5-.013-1.011-.013a38.742,38.742,0,0,0-12.693,2.128l-5.238-14.86A54.714,54.714,0,0,1,694.3,256.44ZM675.891,259.6l5.238,14.862a38.952,38.952,0,0,0-13.23,8.061l-10.771-11.494A54.325,54.325,0,0,1,675.891,259.6Zm-20.222,12.837q.539-.541,1.091-1.061l10.769,11.492a39.094,39.094,0,0,0-8.438,11.667l-14.311-6.606A54.623,54.623,0,0,1,655.669,272.441Zm-11.1,15.95L658.875,295a38.641,38.641,0,0,0-3.446,14.557l-15.726-.511A54.363,54.363,0,0,1,644.566,288.391Zm-4.9,22.681q0-.763.022-1.522l15.72.511q-.013.5-.013,1.011a38.708,38.708,0,0,0,2.309,13.2l-14.787,5.445A54.66,54.66,0,0,1,639.667,311.072Zm3.426,19.123,14.789-5.445a38.986,38.986,0,0,0,7.873,12.722l-11.494,10.77A54.344,54.344,0,0,1,643.093,330.195ZM655.669,349.7q-.539-.539-1.061-1.092L666.1,337.843a39.178,39.178,0,0,0,8.5,6.759l-7.52,13.862A54.947,54.947,0,0,1,655.669,349.7Zm92.9,60.742H640.025L667.232,360.3a55.226,55.226,0,0,0,5.491,2.647l-1.919,4.672a4.574,4.574,0,1,0,.473.181l1.915-4.662a55.968,55.968,0,0,0,19.03,4.049l-.156,4.779a4.551,4.551,0,1,0,.507.016l.155-4.779c.523.014,1.046.022,1.571.022a56.244,56.244,0,0,0,18.436-3.082l1.638,4.645a4.559,4.559,0,1,0,.47-.189l-1.63-4.624a55.444,55.444,0,0,0,8.154-3.676Zm-27.05-51.981L714,344.6a39.125,39.125,0,0,0,6.7-4.985l10.771,11.494A54.828,54.828,0,0,1,721.524,358.464ZM732.93,349.7q-.539.539-1.091,1.061l-10.769-11.493a39.094,39.094,0,0,0,8.438-11.667l14.311,6.607A54.653,54.653,0,0,1,732.93,349.7Zm11.1-15.951-14.309-6.606a38.632,38.632,0,0,0,3.446-14.557l15.726.511A54.355,54.355,0,0,1,744.033,333.751Z" transform="translate(-23.046 -200.564)" fill="#95a9a7"/>
      <rect id="Rectangle_722" data-name="Rectangle 722" width="58.557" height="85.797" transform="translate(748.257 146.397)" fill="#95a9a7"/>
      <rect id="Rectangle_723" data-name="Rectangle 723" width="58.557" height="51.956" transform="translate(798.244 179.754)" fill="#95a9a7"/>
      <rect id="Rectangle_724" data-name="Rectangle 724" width="32.849" height="43.6" transform="translate(571.158 172.124)" fill="#95a9a7"/>
      <rect id="Rectangle_725" data-name="Rectangle 725" width="41.418" height="167.39" transform="translate(777.535 64.804)" fill="#95a9a7"/>
      <path id="Path_172" data-name="Path 172" d="M898.36,427.881H843.731V330.138h41.418Z" transform="translate(-11.209 -195.687)" fill="#95a9a7"/>
      <rect id="Rectangle_726" data-name="Rectangle 726" width="47.845" height="22.313" transform="translate(863.228 209.881)" fill="#95a9a7"/>
      <rect id="Rectangle_727" data-name="Rectangle 727" width="1.428" height="45.488" transform="translate(808.242 29.834)" fill="#95a9a7"/>
      <rect id="Rectangle_728" data-name="Rectangle 728" width="1.428" height="45.488" transform="translate(813.062 39.595)" fill="#95a9a7"/>
      <rect id="Rectangle_729" data-name="Rectangle 729" width="1.428" height="45.488" transform="translate(803.868 45.874)" fill="#95a9a7"/>
      <rect id="Rectangle_730" data-name="Rectangle 730" width="19.549" height="15.398" transform="translate(834.664 126.551)" fill="#95a9a7"/>
      <rect id="Rectangle_731" data-name="Rectangle 731" width="15.264" height="8.655" transform="translate(836.806 121.061)" fill="#95a9a7"/>
      <rect id="Rectangle_732" data-name="Rectangle 732" width="3.749" height="6.218" transform="translate(861.978 131.061)" fill="#95a9a7"/>
      <rect id="Rectangle_733" data-name="Rectangle 733" width="5.356" height="11.89" transform="translate(867.054 125.388)" fill="#95a9a7"/>
    </g>
    <g id="Group_474" data-name="Group 474" transform="translate(42.18 292.632)">
      <g id="Group_469" data-name="Group 469" transform="translate(577.536 5.184)">
        <rect id="Rectangle_734" data-name="Rectangle 734" width="49.654" height="160.047" transform="translate(5.597 9.812)" fill="#658280"/>
        <rect id="Rectangle_735" data-name="Rectangle 735" width="57.073" height="1.622" transform="translate(1.887 10.76)" fill="#658280"/>
        <rect id="Rectangle_736" data-name="Rectangle 736" width="53.984" height="1.617" transform="translate(3.432 33.242)" fill="#658280"/>
        <rect id="Rectangle_737" data-name="Rectangle 737" width="53.984" height="1.617" transform="translate(3.432 55.014)" fill="#658280"/>
        <rect id="Rectangle_738" data-name="Rectangle 738" width="53.984" height="1.617" transform="translate(3.432 76.786)" fill="#658280"/>
        <rect id="Rectangle_739" data-name="Rectangle 739" width="53.984" height="1.617" transform="translate(3.432 98.558)" fill="#658280"/>
        <rect id="Rectangle_740" data-name="Rectangle 740" width="53.984" height="1.617" transform="translate(3.432 120.33)" fill="#658280"/>
        <rect id="Rectangle_741" data-name="Rectangle 741" width="53.984" height="1.617" transform="translate(3.432 142.103)" fill="#658280"/>
        <rect id="Rectangle_742" data-name="Rectangle 742" width="60.847" height="4.422" transform="translate(0 6.338)" fill="#658280"/>
        <rect id="Rectangle_743" data-name="Rectangle 743" width="5.159" height="12.786" transform="translate(10.066 17.639)" fill="#658280" opacity="0.29"/>
        <rect id="Rectangle_744" data-name="Rectangle 744" width="5.159" height="12.786" transform="translate(21.606 17.639)" fill="#658280"/>
        <rect id="Rectangle_745" data-name="Rectangle 745" width="5.159" height="12.786" transform="translate(33.145 17.639)" fill="#658280"/>
        <rect id="Rectangle_746" data-name="Rectangle 746" width="5.159" height="12.786" transform="translate(44.685 17.639)" fill="#658280"/>
        <rect id="Rectangle_747" data-name="Rectangle 747" width="5.159" height="12.786" transform="translate(10.066 38.543)" fill="#658280"/>
        <rect id="Rectangle_748" data-name="Rectangle 748" width="5.159" height="12.786" transform="translate(21.606 38.543)" fill="#658280" opacity="0.29"/>
        <rect id="Rectangle_749" data-name="Rectangle 749" width="5.159" height="12.786" transform="translate(33.145 38.543)" fill="#658280"/>
        <rect id="Rectangle_750" data-name="Rectangle 750" width="5.159" height="12.786" transform="translate(44.685 38.543)" fill="#658280"/>
        <rect id="Rectangle_751" data-name="Rectangle 751" width="5.159" height="12.786" transform="translate(10.066 60.316)" fill="#658280"/>
        <rect id="Rectangle_752" data-name="Rectangle 752" width="5.159" height="12.786" transform="translate(21.606 60.316)" fill="#658280"/>
        <rect id="Rectangle_753" data-name="Rectangle 753" width="5.159" height="12.786" transform="translate(33.145 60.316)" fill="#658280"/>
        <rect id="Rectangle_754" data-name="Rectangle 754" width="5.159" height="12.786" transform="translate(44.685 60.316)" fill="#658280" opacity="0.29"/>
        <rect id="Rectangle_755" data-name="Rectangle 755" width="5.159" height="12.786" transform="translate(10.066 82.088)" fill="#658280"/>
        <rect id="Rectangle_756" data-name="Rectangle 756" width="5.159" height="12.786" transform="translate(21.606 82.088)" fill="#658280" opacity="0.29"/>
        <rect id="Rectangle_757" data-name="Rectangle 757" width="5.159" height="12.786" transform="translate(33.145 82.088)" fill="#658280" opacity="0.29"/>
        <rect id="Rectangle_758" data-name="Rectangle 758" width="5.159" height="12.786" transform="translate(44.685 82.088)" fill="#658280"/>
        <rect id="Rectangle_759" data-name="Rectangle 759" width="5.159" height="12.786" transform="translate(10.066 103.86)" fill="#658280" opacity="0.29"/>
        <rect id="Rectangle_760" data-name="Rectangle 760" width="5.159" height="12.786" transform="translate(21.606 103.86)" fill="#658280"/>
        <rect id="Rectangle_761" data-name="Rectangle 761" width="5.159" height="12.786" transform="translate(33.145 103.86)" fill="#658280"/>
        <rect id="Rectangle_762" data-name="Rectangle 762" width="5.159" height="12.786" transform="translate(44.685 103.86)" fill="#658280"/>
        <rect id="Rectangle_763" data-name="Rectangle 763" width="5.159" height="12.786" transform="translate(10.066 125.632)" fill="#658280"/>
        <rect id="Rectangle_764" data-name="Rectangle 764" width="5.159" height="12.786" transform="translate(21.606 125.632)" fill="#658280"/>
        <rect id="Rectangle_765" data-name="Rectangle 765" width="5.159" height="12.786" transform="translate(33.145 125.632)" fill="#658280" opacity="0.29"/>
        <rect id="Rectangle_766" data-name="Rectangle 766" width="5.159" height="12.786" transform="translate(44.685 125.632)" fill="#658280"/>
        <rect id="Rectangle_767" data-name="Rectangle 767" width="5.159" height="12.786" transform="translate(10.066 147.404)" fill="#658280"/>
        <rect id="Rectangle_768" data-name="Rectangle 768" width="5.159" height="12.786" transform="translate(21.606 147.404)" fill="#658280" opacity="0.29"/>
        <rect id="Rectangle_769" data-name="Rectangle 769" width="5.159" height="12.786" transform="translate(33.145 147.404)" fill="#658280"/>
        <rect id="Rectangle_770" data-name="Rectangle 770" width="5.159" height="12.786" transform="translate(44.685 147.404)" fill="#658280" opacity="0.29"/>
        <rect id="Rectangle_771" data-name="Rectangle 771" width="16.888" height="8.313" transform="translate(8.731 0.237)" fill="#658280"/>
        <rect id="Rectangle_772" data-name="Rectangle 772" width="19.179" height="1.421" transform="translate(7.585)" fill="#658280"/>
      </g>
      <g id="Group_470" data-name="Group 470" transform="translate(442.917 3.795)">
        <path id="Path_173" data-name="Path 173" d="M531.392,460.344H465.249V308.277L531.392,292.1Z" transform="translate(-462.343 -289.096)" fill="#658280"/>
        <rect id="Rectangle_773" data-name="Rectangle 773" width="5.812" height="154.744" transform="translate(0 16.505)" fill="#658280"/>
        <rect id="Rectangle_774" data-name="Rectangle 774" width="5.812" height="159.104" transform="translate(16.536 12.144)" fill="#658280"/>
        <rect id="Rectangle_775" data-name="Rectangle 775" width="5.812" height="163.633" transform="translate(33.071 7.615)" fill="#658280"/>
        <rect id="Rectangle_776" data-name="Rectangle 776" width="5.812" height="167.324" transform="translate(49.607 3.924)" fill="#658280"/>
        <rect id="Rectangle_777" data-name="Rectangle 777" width="5.812" height="171.249" transform="translate(66.143)" fill="#658280"/>
        <rect id="Rectangle_778" data-name="Rectangle 778" width="7.714" height="11.751" transform="translate(7.317 25.491)" fill="#658280" opacity="0.29"/>
        <rect id="Rectangle_779" data-name="Rectangle 779" width="7.714" height="11.751" transform="translate(23.852 29.491)" fill="#658280" opacity="0.29"/>
        <rect id="Rectangle_780" data-name="Rectangle 780" width="7.714" height="11.751" transform="translate(40.388 29.491)" fill="#658280"/>
        <rect id="Rectangle_781" data-name="Rectangle 781" width="7.714" height="11.751" transform="translate(56.924 29.491)" fill="#658280" opacity="0.29"/>
        <rect id="Rectangle_782" data-name="Rectangle 782" width="7.714" height="11.751" transform="translate(7.317 49.954)" fill="#658280"/>
        <rect id="Rectangle_783" data-name="Rectangle 783" width="7.714" height="11.751" transform="translate(23.852 49.954)" fill="#658280"/>
        <rect id="Rectangle_784" data-name="Rectangle 784" width="7.714" height="11.751" transform="translate(40.388 49.954)" fill="#658280" opacity="0.29"/>
        <rect id="Rectangle_785" data-name="Rectangle 785" width="7.714" height="11.751" transform="translate(56.924 49.954)" fill="#658280" opacity="0.29"/>
        <rect id="Rectangle_786" data-name="Rectangle 786" width="7.714" height="11.751" transform="translate(7.317 70.417)" fill="#658280" opacity="0.29"/>
        <rect id="Rectangle_787" data-name="Rectangle 787" width="7.714" height="11.751" transform="translate(23.852 70.417)" fill="#658280" opacity="0.29"/>
        <rect id="Rectangle_788" data-name="Rectangle 788" width="7.714" height="11.751" transform="translate(40.388 70.417)" fill="#658280" opacity="0.29"/>
        <rect id="Rectangle_789" data-name="Rectangle 789" width="7.714" height="11.751" transform="translate(56.924 70.417)" fill="#658280"/>
        <rect id="Rectangle_790" data-name="Rectangle 790" width="7.714" height="11.751" transform="translate(7.317 90.88)" fill="#658280" opacity="0.29"/>
        <rect id="Rectangle_791" data-name="Rectangle 791" width="7.714" height="11.751" transform="translate(23.852 90.88)" fill="#658280"/>
        <rect id="Rectangle_792" data-name="Rectangle 792" width="7.714" height="11.751" transform="translate(40.388 90.88)" fill="#658280" opacity="0.29"/>
        <rect id="Rectangle_793" data-name="Rectangle 793" width="7.714" height="11.751" transform="translate(56.924 90.88)" fill="#658280" opacity="0.29"/>
        <rect id="Rectangle_794" data-name="Rectangle 794" width="7.714" height="11.751" transform="translate(7.317 111.343)" fill="#658280" opacity="0.29"/>
        <rect id="Rectangle_795" data-name="Rectangle 795" width="7.714" height="11.751" transform="translate(23.852 111.343)" fill="#658280" opacity="0.29"/>
        <rect id="Rectangle_796" data-name="Rectangle 796" width="7.714" height="11.751" transform="translate(40.388 111.343)" fill="#658280"/>
        <rect id="Rectangle_797" data-name="Rectangle 797" width="7.714" height="11.751" transform="translate(56.924 111.343)" fill="#658280" opacity="0.29"/>
        <rect id="Rectangle_798" data-name="Rectangle 798" width="7.714" height="11.751" transform="translate(7.317 131.806)" fill="#658280"/>
        <rect id="Rectangle_799" data-name="Rectangle 799" width="7.714" height="11.751" transform="translate(23.852 131.806)" fill="#658280"/>
        <rect id="Rectangle_800" data-name="Rectangle 800" width="7.714" height="11.751" transform="translate(40.388 131.806)" fill="#658280" opacity="0.29"/>
        <rect id="Rectangle_801" data-name="Rectangle 801" width="7.714" height="11.751" transform="translate(56.924 131.806)" fill="#658280" opacity="0.29"/>
        <rect id="Rectangle_802" data-name="Rectangle 802" width="7.714" height="11.751" transform="translate(7.317 152.269)" fill="#658280" opacity="0.29"/>
        <rect id="Rectangle_803" data-name="Rectangle 803" width="7.714" height="11.751" transform="translate(23.852 152.269)" fill="#658280"/>
        <rect id="Rectangle_804" data-name="Rectangle 804" width="7.714" height="11.751" transform="translate(40.388 152.269)" fill="#658280" opacity="0.29"/>
        <rect id="Rectangle_805" data-name="Rectangle 805" width="7.714" height="11.751" transform="translate(56.924 152.269)" fill="#658280"/>
      </g>
      <path id="Path_174" data-name="Path 174" d="M287.267,314.364v1.579h-1.573v4.5H313.37v138.7H267.954v-143.2h-1.648v-1.579Z" transform="translate(-30.126 -284.104)" fill="#658280"/>
      <rect id="Rectangle_806" data-name="Rectangle 806" width="38.901" height="81.779" transform="translate(334.511 93.264)" fill="#658280"/>
      <g id="Group_471" data-name="Group 471" transform="translate(164.96 70.482)">
        <rect id="Rectangle_807" data-name="Rectangle 807" width="31.622" height="100.526" transform="translate(0 4.035)" fill="#658280"/>
        <rect id="Rectangle_808" data-name="Rectangle 808" width="34.46" height="79.58" transform="translate(25.358 24.98)" fill="#658280"/>
        <rect id="Rectangle_809" data-name="Rectangle 809" width="13.981" height="12.03" transform="translate(11.377)" fill="#658280"/>
        <rect id="Rectangle_810" data-name="Rectangle 810" width="36.734" height="2.942" transform="translate(27.724 23.669)" fill="#658280"/>
      </g>
      <rect id="Rectangle_811" data-name="Rectangle 811" width="38.635" height="45.447" transform="translate(221.077 129.596)" fill="#658280"/>
      <rect id="Rectangle_812" data-name="Rectangle 812" width="31.427" height="82.414" transform="translate(96.211 92.629)" fill="#658280"/>
      <rect id="Rectangle_813" data-name="Rectangle 813" width="41.344" height="41.344" transform="translate(68.938 133.699)" fill="#658280"/>
      <rect id="Rectangle_814" data-name="Rectangle 814" width="25.86" height="48.101" transform="translate(23.413 126.942)" fill="#658280"/>
      <rect id="Rectangle_815" data-name="Rectangle 815" width="61.122" height="15.067" transform="translate(44.253 159.976)" fill="#658280"/>
      <rect id="Rectangle_816" data-name="Rectangle 816" width="31.326" height="19.936" transform="translate(0 155.107)" fill="#658280"/>
      <rect id="Rectangle_817" data-name="Rectangle 817" width="48.699" height="30.417" transform="translate(127.638 144.626)" fill="#658280"/>
      <rect id="Rectangle_818" data-name="Rectangle 818" width="75.858" height="13.103" transform="translate(270.492 161.94)" fill="#658280"/>
      <rect id="Rectangle_819" data-name="Rectangle 819" width="75.858" height="13.103" transform="translate(404.988 161.94)" fill="#658280"/>
      <path id="Path_175" data-name="Path 175" d="M370.145,402.817H341.312l-12.193,45.021h41.026Z" transform="translate(-26.748 -279.346)" fill="#658280"/>
      <rect id="Rectangle_820" data-name="Rectangle 820" width="0.803" height="49.943" transform="translate(356.723 57.965)" fill="#658280"/>
      <rect id="Rectangle_821" data-name="Rectangle 821" width="1.071" height="29.469" transform="translate(360.74 74.865)" fill="#658280"/>
      <rect id="Rectangle_822" data-name="Rectangle 822" width="14.587" height="14.587" transform="translate(355.001 80.087)" fill="#658280"/>
      <rect id="Rectangle_823" data-name="Rectangle 823" width="19.32" height="1.306" transform="translate(352.538 78.954)" fill="#658280"/>
      <rect id="Rectangle_824" data-name="Rectangle 824" width="47.135" height="42.181" transform="translate(366.337 132.862)" fill="#658280"/>
      <rect id="Rectangle_825" data-name="Rectangle 825" width="30.283" height="81.389" transform="translate(404.458 86.427)" fill="#658280"/>
      <rect id="Rectangle_826" data-name="Rectangle 826" width="48.382" height="73.315" transform="translate(522.727 101.728)" fill="#658280"/>
      <rect id="Rectangle_827" data-name="Rectangle 827" width="55.162" height="27.015" transform="translate(507.555 148.028)" fill="#658280"/>
      <rect id="Rectangle_828" data-name="Rectangle 828" width="35.871" height="9.67" transform="translate(568.43 165.374)" fill="#658280"/>
      <rect id="Rectangle_829" data-name="Rectangle 829" width="58.32" height="27.015" transform="translate(623.678 148.028)" fill="#658280"/>
      <g id="Group_472" data-name="Group 472" transform="translate(645.039 63.374)">
        <rect id="Rectangle_830" data-name="Rectangle 830" width="72.571" height="97.743" transform="translate(74.446 111.669) rotate(180)" fill="#658280"/>
        <rect id="Rectangle_831" data-name="Rectangle 831" width="78.68" height="3.749" transform="translate(78.68 13.925) rotate(180)" fill="#658280"/>
        <rect id="Rectangle_832" data-name="Rectangle 832" width="31.892" height="19.816" transform="translate(71.232 19.816) rotate(180)" fill="#658280"/>
        <rect id="Rectangle_833" data-name="Rectangle 833" width="5.356" height="12.051" transform="translate(28.921 12.051) rotate(180)" fill="#658280"/>
        <rect id="Rectangle_834" data-name="Rectangle 834" width="5.891" height="12.051" transform="translate(18.21 12.051) rotate(180)" fill="#658280"/>
      </g>
      <g id="Group_473" data-name="Group 473" transform="translate(767.741 0)">
        <rect id="Rectangle_835" data-name="Rectangle 835" width="57.445" height="142.75" transform="translate(59.077 175.043) rotate(180)" fill="#658280"/>
        <rect id="Rectangle_836" data-name="Rectangle 836" width="60.709" height="4.035" transform="translate(60.709 33.874) rotate(180)" fill="#658280"/>
        <rect id="Rectangle_837" data-name="Rectangle 837" width="53.583" height="19.178" transform="translate(57.146 43.852) rotate(180)" fill="#658280"/>
        <rect id="Rectangle_838" data-name="Rectangle 838" width="21.218" height="20.954" transform="translate(53.045 37.781) rotate(180)" fill="#658280"/>
        <path id="Path_176" data-name="Path 176" d="M809.421,307.784H821.7v-11.03h-8.807Z" transform="translate(-768.655 -285.051)" fill="#658280"/>
        <rect id="Rectangle_839" data-name="Rectangle 839" width="1.19" height="24.569" transform="translate(48.095 27.116) rotate(180)" fill="#658280"/>
        <path id="Path_177" data-name="Path 177" d="M814.8,286.922a1.086,1.086,0,1,0,1.07-1.274A1.184,1.184,0,0,0,814.8,286.922Z" transform="translate(-768.366 -285.648)" fill="#658280"/>
      </g>
      <rect id="Rectangle_840" data-name="Rectangle 840" width="25.708" height="58.931" transform="translate(818.954 116.112)" fill="#658280"/>
      <rect id="Rectangle_841" data-name="Rectangle 841" width="29.318" height="87.662" transform="translate(745.725 87.381)" fill="#658280"/>
      <path id="Path_178" data-name="Path 178" d="M765.875,454.15h-41.3V407.264l34.858,15.444Z" transform="translate(-5.478 -279.107)" fill="#658280"/>
      <rect id="Rectangle_842" data-name="Rectangle 842" width="63.071" height="25.464" transform="translate(836.22 149.579)" fill="#658280"/>
      <rect id="Rectangle_843" data-name="Rectangle 843" width="36.637" height="101.649" transform="translate(875.993 73.394)" fill="#658280"/>
      <rect id="Rectangle_844" data-name="Rectangle 844" width="60.699" height="18.979" transform="translate(904.06 156.064)" fill="#658280"/>
      <rect id="Rectangle_845" data-name="Rectangle 845" width="40.189" height="3.332" transform="translate(874.118 71.534)" fill="#658280"/>
      <rect id="Rectangle_846" data-name="Rectangle 846" width="0.803" height="20.485" transform="translate(906.917 57.19)" fill="#658280"/>
      <rect id="Rectangle_847" data-name="Rectangle 847" width="0.803" height="16.433" transform="translate(901.561 59.783)" fill="#658280"/>
      <path id="Path_179" data-name="Path 179" d="M921.939,391.635H905.6v46.572h23.3Z" transform="translate(4.258 -279.947)" fill="#658280"/>
    </g>
  </g>
</svg>
