<svg xmlns="http://www.w3.org/2000/svg" width="328.261" height="276.714" viewBox="0 0 328.261 276.714">
  <g id="Group_496" data-name="Group 496" transform="translate(-852.494 -427.138)">
    <ellipse id="Ellipse_51" data-name="Ellipse 51" cx="132.974" cy="4.649" rx="132.974" ry="4.649" transform="translate(863.496 694.553)" fill="#b1b8ca"/>
    <path id="Path_186" data-name="Path 186" d="M222.124,347.928l.632,1.957L229.394,348Z" transform="translate(755.361 295.237)" fill="#c62828"/>
    <path id="Path_187" data-name="Path 187" d="M166.417,290.776l.195-1.9,13.637-42.416,3.974,5.825a1.489,1.489,0,0,0,2.2.3,1.522,1.522,0,0,0,.511-1.129,1.4,1.4,0,0,0-.286-.858l-.391-.557a1.741,1.741,0,0,0,.918.241,2,2,0,0,0,1.49-.662,6.794,6.794,0,0,0,1.7.722l-9.8,20.019a56.808,56.808,0,0,0,4.4,58.417l6.321,8.925c.888,1.25,1.671,2.574,2.469,3.9.15.241.286.466.436.707a11.411,11.411,0,0,0,9.649,5.464l5.915.045,10.928.106h1.445l.632,1.956-20.7,8.279a4.077,4.077,0,0,0-2.514,3.356,3.558,3.558,0,0,0-.015.392,4.488,4.488,0,0,0,.045.632l-1.009.2a25.418,25.418,0,0,1-20.53-14.992l-1.791-4.049-4.5-10.145-1.776-5.885A94.378,94.378,0,0,1,166.417,290.776Z" transform="translate(755.361 295.237)" fill="#114da5"/>
    <path id="Path_188" data-name="Path 188" d="M154.315,297.2a4.156,4.156,0,0,0,2.393-1.656,81.268,81.268,0,0,0,12.072-26.762l5.419-21.9a11.343,11.343,0,0,0,1.264-14.8s11.439.451,14.916,6.969l-.647-.211a4.908,4.908,0,0,0-4.877,1.069l-4.335,4.079a1.906,1.906,0,0,0-.271,2.468l-13.637,42.416-.195,1.9a94.359,94.359,0,0,0,3.552,36.892l1.776,5.885,4.5,10.145,1.791,4.049a25.418,25.418,0,0,0,20.53,14.992l1.009-.2a4.038,4.038,0,0,0,2.679,3.206l4.711,1.611a37.192,37.192,0,0,0,13.652,1.971c.557-.03,1.1-.06,1.656-.12l24.9-2.2a4.236,4.236,0,0,0,3.372-2.272h0a4.017,4.017,0,0,0,.452-2.108,47.909,47.909,0,0,0-3.808-15.368l-1.4,1.34-1.189-2.589a39.548,39.548,0,0,0,7.255-3.221,26.561,26.561,0,0,0,4.952-42.537l-15.218-14.209,37.7.813a50.21,50.21,0,0,0,7.842.09l43.651,2.334c.255.015.511.045.752.075a7.774,7.774,0,0,1,6.593,7.676s8.941,2.5,19.251,10.943a74.349,74.349,0,0,1,15.353,17.264,90.826,90.826,0,0,1,12.117,29.382l-5.163-8.068a122.267,122.267,0,0,0-44.012-41.2,46.344,46.344,0,0,0-41.242-1.7,35.071,35.071,0,0,0-13.17,53.826l6.788,8.579h0l.21,4.23-67.432,3.266-11.439.557a34.338,34.338,0,0,1-31.639-17.551c-.542-.948-1.024-1.941-1.475-2.95l-4.335-6.7a61.614,61.614,0,0,1-9.122-23.5,40.1,40.1,0,0,0-16.993-8.083v-.015a12.686,12.686,0,0,1-1.295-5.6A12.905,12.905,0,0,1,154.315,297.2Z" transform="translate(755.361 295.237)" fill="#3f1085"/>
    <path id="Path_189" data-name="Path 189" d="M273.661,335.766a34.837,34.837,0,0,0,7.6,21.72l6.789,8.579.21,4.23,7.06-.347c-.06-.812-.091-1.64-.091-2.468a36.479,36.479,0,0,1,72.942-1.054l7.465-.361a9.41,9.41,0,0,0,9.212-11.439l-5.163-8.068a122.271,122.271,0,0,0-44.011-41.2,46.344,46.344,0,0,0-41.242-1.7A35.042,35.042,0,0,0,273.661,335.766Z" transform="translate(755.361 295.237)" fill="#114da5"/>
    <path id="Path_190" data-name="Path 190" d="M331.716,330.994a36.45,36.45,0,0,1,36.456,35.432l-12.584.617-13,.618-21.675,1.053-13.02.632-12.568.6c-.06-.812-.09-1.64-.09-2.468A36.481,36.481,0,0,1,331.716,330.994Z" transform="translate(755.361 295.237)" fill="#2c74dd"/>
    <path id="Path_191" data-name="Path 191" d="M321.581,359.8h.042l32.546-1.782a.751.751,0,0,0,.71-.792.742.742,0,0,0-.792-.71L321.54,358.3a.752.752,0,0,0,.041,1.5Z" transform="translate(755.361 295.237)" fill="#fff"/>
    <path id="Path_192" data-name="Path 192" d="M318.593,356.814a.277.277,0,0,0,.041,0l32.547-1.781a.752.752,0,0,0,.71-.792.743.743,0,0,0-.792-.71l-32.547,1.781a.753.753,0,0,0,.041,1.5Z" transform="translate(755.361 295.237)" fill="#fff"/>
    <path id="Path_193" data-name="Path 193" d="M315.6,353.826a.29.29,0,0,0,.041,0l32.547-1.781a.752.752,0,0,0,.71-.793.743.743,0,0,0-.792-.71l-32.547,1.782a.753.753,0,0,0,.041,1.5Z" transform="translate(755.361 295.237)" fill="#fff"/>
    <path id="Path_194" data-name="Path 194" d="M312.8,351.015h.041l32.547-1.78a.752.752,0,0,0,.71-.793.743.743,0,0,0-.792-.71l-32.547,1.78a.753.753,0,0,0,.041,1.5Z" transform="translate(755.361 295.237)" fill="#fff"/>
    <path id="Path_195" data-name="Path 195" d="M294.43,303.661a34.428,34.428,0,0,0-14.623,11.49,37.4,37.4,0,0,0-4.553,8.291,35.889,35.889,0,0,0-2.076,9.256,35.079,35.079,0,0,0,3.3,18.548,44.33,44.33,0,0,0,5.21,7.93l5.841,7.3.514-1.063c-5.9.006-11.8.155-17.7.225q-8.852.133-17.7.431,8.85.283,17.7.431c5.9.07,11.8.219,17.7.224a.655.655,0,0,0,.514-1.062l-5.769-7.36a42.771,42.771,0,0,1-4.963-7.711,33.905,33.905,0,0,1-3.328-17.782,38.808,38.808,0,0,1,1.848-8.969,36.009,36.009,0,0,1,18.08-20.181Z" transform="translate(755.361 295.237)" fill="#3f1085"/>
    <path id="Path_196" data-name="Path 196" d="M241.586,286.049,256.8,300.258a26.362,26.362,0,0,1,6.728,9.98c16.211-4.787,23.6-23.285,23.6-23.285a50.281,50.281,0,0,1-7.842-.091Z" transform="translate(755.361 295.237)" fill="#173491"/>
    <path id="Path_197" data-name="Path 197" d="M137.472,314.467a41.27,41.27,0,0,1,8.354.858v.015a40.1,40.1,0,0,1,16.993,8.083,61.614,61.614,0,0,0,9.122,23.5l4.335,6.7c.451,1.009.933,2,1.475,2.95a39.37,39.37,0,0,1-1.551,9.5l-6.276-2.167L156,359.1,121.2,347.07l-13.923-4.817-7.24-2.5A40.349,40.349,0,0,1,137.472,314.467Z" transform="translate(755.361 295.237)" fill="#173491"/>
    <g id="Group_482" data-name="Group 482" transform="translate(755.361 295.237)">
      <g id="Group_480" data-name="Group 480">
        <path id="Path_198" data-name="Path 198" d="M107.278,342.253A36.48,36.48,0,1,0,170.1,367.48a35.351,35.351,0,0,0-.18-3.582L156,359.1a23.895,23.895,0,1,1-34.8-12.026Z" fill="#002147"/>
        <path id="Path_199" data-name="Path 199" d="M156,359.1a23.895,23.895,0,1,1-34.8-12.026Zm-22.382,19.266a10.883,10.883,0,1,0-10.883-10.882A10.878,10.878,0,0,0,133.619,378.362Z" fill="#e5e5fd"/>
        <circle id="Ellipse_52" data-name="Ellipse 52" cx="10.882" cy="10.882" r="10.882" transform="translate(122.736 356.597)" fill="#3a3635"/>
        <circle id="Ellipse_53" data-name="Ellipse 53" cx="10.882" cy="10.882" r="10.882" transform="translate(122.736 356.597)" fill="#002147"/>
      </g>
      <g id="Group_481" data-name="Group 481">
        <path id="Path_200" data-name="Path 200" d="M307.889,369.346l-12.568.6A36.482,36.482,0,0,0,368.2,367.48c0-.346,0-.707-.03-1.054l-12.584.617a4.259,4.259,0,0,1,.015.437,23.893,23.893,0,0,1-47.714,1.866Z" fill="#002147"/>
        <path id="Path_201" data-name="Path 201" d="M320.909,368.714l-13.02.632A23.893,23.893,0,0,0,355.6,367.48a4.259,4.259,0,0,0-.015-.437l-13,.618a10.873,10.873,0,0,1-21.675,1.053Z" fill="#e5e5fd"/>
        <path id="Path_202" data-name="Path 202" d="M342.584,367.661l-21.675,1.053a10.873,10.873,0,0,0,21.675-1.053Z" fill="#002147"/>
      </g>
    </g>
    <g id="Group_483" data-name="Group 483" transform="translate(755.361 295.237)">
      <path id="Path_203" data-name="Path 203" d="M157.807,227.423v22.653h5.614a182.57,182.57,0,0,1,.015-22.653Z" fill="#114da5"/>
      <path id="Path_204" data-name="Path 204" d="M174.2,246.885a11.343,11.343,0,0,0,1.264-14.8,10.862,10.862,0,0,0-1.144-1.355,11.337,11.337,0,0,0-8.008-3.311h-2.875a182.57,182.57,0,0,0-.015,22.653h2.89A11.355,11.355,0,0,0,174.2,246.885Z" fill="#3f1085"/>
    </g>
    <g id="Group_485" data-name="Group 485" transform="translate(755.361 295.237)">
      <path id="Path_205" data-name="Path 205" d="M304.4,284.439v3.436l26.951,1.463,1.165.237,16.272-5.136Z" fill="#f99410" stroke="#042128" stroke-miterlimit="10" stroke-width="1"/>
      <g id="Group_484" data-name="Group 484">
        <path id="Path_206" data-name="Path 206" d="M304.4,266.437v18h68.335V233.88H304.4Z" fill="#f99410" stroke="#042128" stroke-miterlimit="10" stroke-width="1"/>
        <rect id="Rectangle_848" data-name="Rectangle 848" width="59.951" height="3.554" transform="translate(368.922 255.926) rotate(180)" fill="#f99410" stroke="#042128" stroke-miterlimit="10" stroke-width="1"/>
        <rect id="Rectangle_849" data-name="Rectangle 849" width="59.951" height="3.554" transform="translate(368.922 266.41) rotate(180)" fill="#f99410" stroke="#042128" stroke-miterlimit="10" stroke-width="1"/>
        <rect id="Rectangle_850" data-name="Rectangle 850" width="59.951" height="3.554" transform="translate(368.922 276.895) rotate(180)" fill="#f99410" stroke="#042128" stroke-miterlimit="10" stroke-width="1"/>
        <path id="Rectangle_851" data-name="Rectangle 851" d="M5.278,0H19.332a5.278,5.278,0,0,1,5.278,5.278V7.944a0,0,0,0,1,0,0H0a0,0,0,0,1,0,0V5.278A5.278,5.278,0,0,1,5.278,0Z" transform="translate(351.729 244.828) rotate(180)" fill="#f99410" stroke="#042128" stroke-miterlimit="10" stroke-width="1"/>
        <path id="Path_207" data-name="Path 207" d="M370.181,236.884c-5.1-.311-10.2-.456-15.3-.577-5.1-.137-10.2-.157-15.3-.175-5.1.016-10.2.036-15.3.173l-7.651.21c-2.551.125-5.1.2-7.652.369,2.551.17,5.1.244,7.652.369l7.651.21c5.1.136,10.2.156,15.3.173,5.1-.019,10.2-.038,15.3-.176C359.98,237.34,365.081,237.194,370.181,236.884Z" fill="#f99410" stroke="#042128" stroke-miterlimit="10" stroke-width="1"/>
      </g>
    </g>
    <g id="Group_486" data-name="Group 486" transform="translate(755.361 295.237)">
      <path id="Path_208" data-name="Path 208" d="M201.653,285.523l-3.086,39.315,6.382,1.626,11.048,2.8Z" fill="#030356"/>
      <path id="Path_209" data-name="Path 209" d="M203.2,265.76l-.286,3.732a16.417,16.417,0,0,1,12.9-7.45l49.475-2.785-1.866-2.137a4.615,4.615,0,0,0-3.236-1.551l-42.311-1.851-1.024-.045A13.136,13.136,0,0,0,203.2,265.76Z" fill="#030356"/>
    </g>
    <g id="Group_487" data-name="Group 487" transform="translate(755.361 295.237)">
      <path id="Path_210" data-name="Path 210" d="M204.949,326.464l-2.634,11.484,2.5,4.365a5.724,5.724,0,0,0,8.881,1.325l2.89-2.709,1.249-6.066v-.015L216,329.263Z" fill="#d8667c"/>
      <path id="Path_211" data-name="Path 211" d="M199.546,337.346a1.9,1.9,0,0,1,2.769.6l2.5,4.365a5.724,5.724,0,0,0,8.881,1.325l2.89-2.709,1.475-1.385,2.619,8.369v.015l-10.928-.106-5.915-.045a11.411,11.411,0,0,1-9.649-5.464c-.15-.241-.286-.466-.436-.707Z" fill="#303d89"/>
    </g>
    <path id="Path_212" data-name="Path 212" d="M238,149.86a15.488,15.488,0,0,1-2.844,8.761,7.911,7.911,0,0,1,4.033,1.159,15.176,15.176,0,0,0,1.912,1.339c1.9.948,3.853.09,5.75.286a2.751,2.751,0,0,1,1.776,1.31,1.785,1.785,0,0,1,.165.346l.588-.151-1.6-6.321a5.1,5.1,0,0,0-3.9-3.688A15.365,15.365,0,0,1,238,149.86Z" transform="translate(755.361 295.237)" fill="#fd97a7"/>
    <path id="Path_213" data-name="Path 213" d="M242.1,173.69a5.589,5.589,0,0,0,.9-.241,2.541,2.541,0,0,0,.316-.105,11.237,11.237,0,0,1,4.245,2.212,14.3,14.3,0,0,1,4.982,9.408l6.277-6.277a11.339,11.339,0,0,1,7.24-3.3v-.015l-4.11-4.2a23.182,23.182,0,0,1-5.042-7.887l-1.189-3.146a2.93,2.93,0,0,1-1.641.5,2.884,2.884,0,0,1-2.107-.888l.8,1.942a1.81,1.81,0,0,1-.948,2.348,1.915,1.915,0,0,1-.708.135,1.8,1.8,0,0,1-1.7-1.174l-.03-.09-.587.15c.211.708-.421,1.174-.692,1.972-.572,1.686-.768,3.3-1.761,4.862a9.132,9.132,0,0,1-1.084,1.671,9.882,9.882,0,0,1-3.146,2.107Z" transform="translate(755.361 295.237)" fill="#fd97a7"/>
    <circle id="Ellipse_54" data-name="Ellipse 54" cx="0.859" cy="0.859" r="0.859" transform="translate(994.151 449.843)" fill="#042128"/>
    <path id="Path_214" data-name="Path 214" d="M238.647,152.39a12.312,12.312,0,0,0,1.023.844,10.273,10.273,0,0,1,.883.666,6.275,6.275,0,0,1,.872.622c.321.214.6.49,1.038.784l.084-.027a4.135,4.135,0,0,0-1.481-2.087,5.247,5.247,0,0,0-2.412-.889Z" transform="translate(755.361 295.237)" fill="#1c54d1"/>
    <path id="Path_215" data-name="Path 215" d="M246.855,171.008a8.853,8.853,0,0,1-2.613,1.968,9.231,9.231,0,0,1-.92.368,11.237,11.237,0,0,1,4.245,2.212,9.182,9.182,0,0,0,3.848-9.3Z" transform="translate(755.361 295.237)" fill="#d8667c"/>
    <path id="Path_216" data-name="Path 216" d="M237.973,148.114c3.357.467,7.662.151,13.14-1.535l20.17,13.562s.391,9.377-9.332,11.033l-.017-.019c-2.392.838-4.945-1.289-5.283-3.6a13.037,13.037,0,0,0-.663-3.3,5.208,5.208,0,0,1-.2-2.576c.033-.512-.046-.994-.05-1.484l-.022-.057.023-.017c0-.066,0-.131,0-.2a2.119,2.119,0,0,1,.252.007,2.965,2.965,0,1,0-4.882-2.262h0l.858,2.077.8,1.942a1.81,1.81,0,0,1-.948,2.348,1.917,1.917,0,0,1-.708.136,1.8,1.8,0,0,1-1.7-1.174l-.031-.091-1.6-6.321a5.1,5.1,0,0,0-3.9-3.688A15.365,15.365,0,0,1,238,149.86a16.42,16.42,0,0,0-.03-1.731Z" transform="translate(755.361 295.237)"/>
    <g id="Group_488" data-name="Group 488" transform="translate(755.361 295.237)">
      <path id="Path_217" data-name="Path 217" d="M241.285,139.971H226.669s2.108,6.924,11.3,8.143c3.357.467,7.662.151,13.14-1.535Z" fill="#fdbc0b"/>
      <path id="Path_218" data-name="Path 218" d="M241.285,139.971l9.828,6.608,20.17,13.562.6.406c6.216-9.513,4.154-16.12,1.355-19.974-1.641-2.272-5.389-4.831-7.948-5.99C246.974,126.259,241.285,139.971,241.285,139.971Z" fill="#f99410"/>
      <path id="Path_219" data-name="Path 219" d="M263.21,135.559a13.677,13.677,0,0,0-4.22,1.1A14.191,14.191,0,0,0,255.258,139a11.757,11.757,0,0,0-2.767,3.436,12.2,12.2,0,0,0-1.378,4.141,18.786,18.786,0,0,1,1.875-3.844,14.244,14.244,0,0,1,2.764-3.166A20.252,20.252,0,0,1,263.21,135.559Z" fill="#af680b"/>
    </g>
    <g id="Group_489" data-name="Group 489" transform="translate(755.361 295.237)">
      <path id="Path_220" data-name="Path 220" d="M234.432,159.463c-.509.538-.687,1.317.008,1.571l.366.1a3.634,3.634,0,0,1,2.385,3.412v6.462a2.886,2.886,0,0,0,2.878,2.89,10.27,10.27,0,0,0,2.013-.211h.015a10.217,10.217,0,0,0,3.161-2.122,9.079,9.079,0,0,0,1.084-1.671c.993-1.565,1.189-3.176,1.761-4.861.271-.8.9-1.265.692-1.972a1.785,1.785,0,0,0-.165-.346,2.751,2.751,0,0,0-1.776-1.31c-1.9-.2-3.853.662-5.75-.286a15.176,15.176,0,0,1-1.912-1.339,7.911,7.911,0,0,0-4.033-1.159C234.934,158.911,234.692,159.189,234.432,159.463Z" fill="#fff" stroke="#c8c8c8" stroke-width="1"/>
      <path id="Path_221" data-name="Path 221" d="M246.408,162.09a.185.185,0,0,0,.13-.052l5.134-4.895a.188.188,0,1,0-.259-.272l-5.134,4.9a.189.189,0,0,0-.007.266A.191.191,0,0,0,246.408,162.09Z" fill="#424242" stroke="#c8c8c8" stroke-width="1"/>
      <path id="Path_222" data-name="Path 222" d="M246.408,168.712a.188.188,0,0,0,.143-.065l7.333-8.483a.188.188,0,0,0-.285-.246l-7.333,8.483a.187.187,0,0,0,.142.311Z" fill="#424242" stroke="#c8c8c8" stroke-width="1"/>
      <path id="Path_223" data-name="Path 223" d="M244.972,164.586a10.582,10.582,0,0,1-2.093.1,11.8,11.8,0,0,1-2.063-.253,17.058,17.058,0,0,1-3.946-1.373,9.771,9.771,0,0,0,1.834,1.08,10.407,10.407,0,0,0,2.037.662A8.074,8.074,0,0,0,244.972,164.586Z" fill="#424242" stroke="#c8c8c8" stroke-width="1"/>
      <path id="Path_224" data-name="Path 224" d="M245.319,166.827a13.23,13.23,0,0,1-1.839,1.207,11.565,11.565,0,0,1-1.991.886,12.971,12.971,0,0,1-4.3.727,8.348,8.348,0,0,0,2.228.1,9.087,9.087,0,0,0,2.195-.474A8.857,8.857,0,0,0,245.319,166.827Z" fill="#424242" stroke="#c8c8c8" stroke-width="1"/>
    </g>
    <path id="Path_225" data-name="Path 225" d="M251.113,157.672l.858,2.077a2.885,2.885,0,0,0,2.108.888,2.967,2.967,0,0,0,2.965-2.965,2.965,2.965,0,0,0-5.931,0Z" transform="translate(755.361 295.237)" fill="#d8667c"/>
    <g id="Group_490" data-name="Group 490" transform="translate(755.361 295.237)">
      <path id="Path_226" data-name="Path 226" d="M249.051,214.3l16.241,3.944L256.5,238.41s.452,11.048,3.688,17.159a4.615,4.615,0,0,1,3.236,1.551l1.866,2.137a3.585,3.585,0,0,1,2.77,1.069l14.69,15.172a16.406,16.406,0,0,0,4.366,3.221l9.061,4.546,1.776-.647a7.37,7.37,0,0,0,3.206-2.288,7.26,7.26,0,0,0,1.565-3.6,73.759,73.759,0,0,0,.723-10.295,72.749,72.749,0,0,0-1.2-13.261l-7.707-41.8A66.21,66.21,0,0,0,281.5,182.433a18.592,18.592,0,0,0-14.6-7.09,7.936,7.936,0,0,0-.843.045,11.344,11.344,0,0,0-7.24,3.3l-6.277,6.276a2.4,2.4,0,0,0-.255,3.086l1.52,2.122Z" fill="#fdbc0b"/>
      <path id="Path_227" data-name="Path 227" d="M279.708,193.413c-.568,2.2-1.109,4.4-1.6,6.616s-1.018,4.42-1.446,6.646l-1.347,6.665-1.227,6.688.606-.4c-2.37-.537-4.759-.992-7.144-1.462s-4.781-.9-7.183-1.288c2.336.686,4.676,1.353,7.032,1.952s4.7,1.235,7.071,1.778l.5.116.1-.511,1.337-6.667,1.216-6.69c.426-2.226.741-4.474,1.117-6.709S279.42,195.666,279.708,193.413Z" fill="#a34a0d"/>
      <path id="Path_228" data-name="Path 228" d="M288.986,261.034c-1.654-.82-3.281-1.679-4.84-2.653-1.584-.927-3.118-1.933-4.606-3a57.648,57.648,0,0,1-8.316-7.1,41.841,41.841,0,0,1-6.563-8.683l-1.289-2.413c-.386-.825-.682-1.69-1.034-2.534l-.53-1.27-.375-1.322q-.363-1.326-.766-2.657a32.007,32.007,0,0,0,3.229,10.607,39.166,39.166,0,0,0,6.517,9.055,51.926,51.926,0,0,0,8.643,7.031A47.358,47.358,0,0,0,288.986,261.034Z" fill="#a34a0d"/>
      <path id="Path_229" data-name="Path 229" d="M295.757,268.043q-3.688-.395-7.292-1.086c-2.4-.473-4.788-1.013-7.133-1.691a70.72,70.72,0,0,1-6.951-2.307c-2.3-.842-4.494-1.933-6.741-2.978a37.11,37.11,0,0,0,6.4,3.776,42.37,42.37,0,0,0,6.988,2.6,46.676,46.676,0,0,0,7.3,1.459A37.481,37.481,0,0,0,295.757,268.043Z" fill="#a34a0d"/>
      <path id="Path_230" data-name="Path 230" d="M264.691,178.841a12.151,12.151,0,0,0-3.721,1.654,16.707,16.707,0,0,0-3.152,2.624,17.39,17.39,0,0,0-2.424,3.3,17.015,17.015,0,0,0-.912,1.828c-.253.631-.472,1.276-.674,1.919.672-1.178,1.331-2.339,2.094-3.428l.568-.816.616-.78c.4-.528.849-1.013,1.293-1.5a23.738,23.738,0,0,1,2.934-2.66A20.775,20.775,0,0,1,264.691,178.841Z" fill="#a34a0d"/>
      <path id="Path_231" data-name="Path 231" d="M292.854,204.371q-.209,2.934-.564,5.833c-.25,1.933-.5,3.863-.843,5.78-.32,1.92-.693,3.831-1.107,5.735-.395,1.91-.9,3.793-1.354,5.7.373-.906.732-1.821,1.058-2.747.3-.933.61-1.867.87-2.814a52.823,52.823,0,0,0,1.29-5.75,53.587,53.587,0,0,0,.672-5.855q.086-1.47.1-2.944C292.96,206.331,292.955,205.349,292.854,204.371Z" fill="#a34a0d"/>
    </g>
    <path id="Path_232" data-name="Path 232" d="M202.917,269.492a16.417,16.417,0,0,1,12.9-7.45l49.475-2.785a3.585,3.585,0,0,1,2.77,1.069l14.69,15.172a16.418,16.418,0,0,0,4.365,3.221l9.062,4.546c-1.1,2.5-5.178,3.417-9.046,3.688a50.281,50.281,0,0,1-7.842-.091l-37.7-.813-14.044-.3,17.445,57.83-1.339.376-14.224,4.034-.03.015-7.27-.075-4.29-13.065v-.015L216,329.263l-14.345-43.74-.6-1.852A16.4,16.4,0,0,1,202.917,269.492Z" transform="translate(755.361 295.237)" fill="#002147"/>
    <g id="Group_491" data-name="Group 491" transform="translate(755.361 295.237)">
      <path id="Path_233" data-name="Path 233" d="M199.546,361.519a3.558,3.558,0,0,0-.015.392,4.477,4.477,0,0,0,.045.632,4.038,4.038,0,0,0,2.679,3.206l4.711,1.611a37.192,37.192,0,0,0,13.652,1.971c.557-.03,1.1-.06,1.656-.12l24.9-2.2a4.236,4.236,0,0,0,3.372-2.272,4.017,4.017,0,0,0,.451-2.108,47.908,47.908,0,0,0-3.808-15.368l-1.4,1.34-.9.873a8.838,8.838,0,0,1-10.431,1.34L229.439,348h-.045l-6.638,1.881-20.7,8.279A4.077,4.077,0,0,0,199.546,361.519Z" fill="#4e58af"/>
      <path id="Path_234" data-name="Path 234" d="M243.648,343.954l.948,2.062,1.189,2.589-.9.873a8.838,8.838,0,0,1-10.431,1.34L229.439,348l-.015-.015Z" fill="#fd97a7"/>
      <path id="Path_235" data-name="Path 235" d="M200.958,362.739a21.764,21.764,0,0,0,2.937,1l2.985.857,6,1.584a20.774,20.774,0,0,0,6.246.611c2.092-.155,4.128-.371,6.2-.553,4.113-.433,8.23-.834,12.341-1.3l6.165-.712c.515-.072,1.02-.114,1.548-.213a5.979,5.979,0,0,0,2.794-1.388,11.725,11.725,0,0,0,1.047-1.152,7.088,7.088,0,0,1-2.433,1.844,5.675,5.675,0,0,1-1.458.41c-.493.065-1.023.082-1.535.124l-6.185.5c-4.123.343-8.24.749-12.359,1.123-2.052.2-4.128.446-6.159.62a22.212,22.212,0,0,1-6.071-.487l-6.048-1.374-3.024-.69-1.507-.366A9.564,9.564,0,0,1,200.958,362.739Z" fill="#303d89"/>
    </g>
    <g id="Group_493" data-name="Group 493" transform="translate(755.361 295.237)">
      <g id="Group_492" data-name="Group 492">
        <path id="Path_236" data-name="Path 236" d="M180.52,243.995a1.906,1.906,0,0,0-.271,2.468l3.974,5.825a1.489,1.489,0,0,0,2.2.3,1.522,1.522,0,0,0,.511-1.129,1.4,1.4,0,0,0-.286-.858l-.391-.557a1.916,1.916,0,0,1-1.054-1.46l-.662-.933a.713.713,0,0,1,.361-1.1l1.174-.376a2.766,2.766,0,0,1,2.183.2l7.451,3.973a3.529,3.529,0,0,0,2.98.121l4.229-1.851,12.87.9c.752.06,1.52.09,2.273.12a64.5,64.5,0,0,0,13.2-.888l15.473-2.679a13.07,13.07,0,0,0,9.769-7.662l8.79-20.169L249.051,214.3,246.884,222a12.515,12.515,0,0,1-6.623,7.872l-10.055,4.847a53.4,53.4,0,0,1-12.884,4.289l-13.471,2.619a14.229,14.229,0,0,1-7.15-.466l-6.322-2.107-.647-.211a4.908,4.908,0,0,0-4.877,1.069Z" fill="#fd97a7"/>
        <path id="Path_237" data-name="Path 237" d="M184.9,246.553a.713.713,0,0,0-.361,1.1l.662.933a2.238,2.238,0,0,1-.03-.316,2.009,2.009,0,1,1,3.492,1.355,6.794,6.794,0,0,0,1.7.722,15.992,15.992,0,0,0,6.232.332v-.015a3.316,3.316,0,0,1-.888-.317l-7.451-3.973a2.766,2.766,0,0,0-2.183-.2Z" fill="#d8667c"/>
      </g>
      <path id="Path_238" data-name="Path 238" d="M187.173,246.267a2,2,0,0,1,2.017,2,1.98,1.98,0,0,1-.527,1.355,2,2,0,0,1-1.49.662,1.741,1.741,0,0,1-.918-.241,1.918,1.918,0,0,1-1.054-1.46,2.238,2.238,0,0,1-.03-.316A1.991,1.991,0,0,1,187.173,246.267Z" fill="#3a3635"/>
      <path id="Path_239" data-name="Path 239" d="M246.733,246.072a12.179,12.179,0,0,0,7.259-3.2,12.665,12.665,0,0,0,2.514-3.225c.663-1.232,1.108-2.421,1.646-3.638,1.041-2.418,2.058-4.847,3.014-7.3.979-2.445,1.924-4.9,2.789-7.4-1.237,2.333-2.4,4.7-3.52,7.081-1.148,2.371-2.234,4.769-3.3,7.178-.547,1.181-1.041,2.459-1.6,3.558a13.455,13.455,0,0,1-2.215,3.062A14.2,14.2,0,0,1,246.733,246.072Z" fill="#a34a0d"/>
    </g>
    <g id="Group_494" data-name="Group 494" transform="translate(755.361 295.237)">
      <rect id="Rectangle_852" data-name="Rectangle 852" width="50.118" height="26.809" transform="translate(366.997 233.88) rotate(180)" fill="#f99410"/>
      <rect id="Rectangle_853" data-name="Rectangle 853" width="5.983" height="14.237" transform="translate(344.929 221.308) rotate(180)" fill="#af680b"/>
      <rect id="Rectangle_854" data-name="Rectangle 854" width="11.475" height="4.736" transform="translate(331.128 215.897) rotate(180)" fill="#ffe8ca"/>
    </g>
    <g id="Group_495" data-name="Group 495" transform="translate(755.361 295.237)">
      <path id="Path_240" data-name="Path 240" d="M287.133,159.121h54.8a.5.5,0,0,0,0-1h-54.8a.5.5,0,0,0,0,1Z" fill="#3f1085"/>
      <path id="Path_241" data-name="Path 241" d="M281.454,165.481h32.424a.5.5,0,0,0,0-1H281.454a.5.5,0,0,0,0,1Z" fill="#3f1085"/>
      <path id="Path_242" data-name="Path 242" d="M358.648,273.771h42.793a.5.5,0,0,0,0-1H358.648a.5.5,0,0,0,0,1Z" fill="#3f1085"/>
      <path id="Path_243" data-name="Path 243" d="M386.772,265.87H419.2a.5.5,0,0,0,0-1H386.772a.5.5,0,0,0,0,1Z" fill="#3f1085"/>
      <path id="Path_244" data-name="Path 244" d="M184.4,220.4H205.32a.5.5,0,0,0,0-1H184.4a.5.5,0,0,0,0,1Z" fill="#3f1085"/>
      <path id="Path_245" data-name="Path 245" d="M190.136,213.009h36.278a.5.5,0,0,0,0-1H190.136a.5.5,0,0,0,0,1Z" fill="#3f1085"/>
      <path id="Path_246" data-name="Path 246" d="M295.757,175.843h43.819a.5.5,0,0,0,0-1H295.757a.5.5,0,0,0,0,1Z" fill="#3f1085"/>
      <path id="Path_247" data-name="Path 247" d="M381.075,281.812h43.819a.5.5,0,0,0,0-1H381.075a.5.5,0,0,0,0,1Z" fill="#3f1085"/>
    </g>
  </g>
</svg>
