<svg xmlns="http://www.w3.org/2000/svg" width="41.073" height="61" viewBox="0 0 41.073 61">
  <defs>
    <style>
      .cls-1 {
        fill: #989797;
      }
    </style>
  </defs>
  <g id="list-6241" transform="translate(84.861 126.036)">
    <g id="Group_817" data-name="Group 817" transform="translate(-84.861 -126.036)">
      <path id="Path_663" data-name="Path 663" class="cls-1" d="M78.344,89.773H45.077a3.907,3.907,0,0,1-3.9-3.9V41.862a3.907,3.907,0,0,1,3.9-3.9h6a1.356,1.356,0,1,1,0,2.711h-6a1.193,1.193,0,0,0-1.192,1.192V85.87a1.193,1.193,0,0,0,1.192,1.192H78.344a1.193,1.193,0,0,0,1.192-1.192V41.862a1.193,1.193,0,0,0-1.192-1.192h-6a1.356,1.356,0,0,1,0-2.711h6a3.907,3.907,0,0,1,3.9,3.9V85.87A3.907,3.907,0,0,1,78.344,89.773Z" transform="translate(-41.175 -28.773)"/>
      <path id="Path_664" data-name="Path 664" class="cls-1" d="M99.12,14.225H77.857A1.356,1.356,0,0,1,76.5,12.87v-2.25a7.176,7.176,0,0,1,6.547-7.14,5.992,5.992,0,0,1,10.88,0,7.176,7.176,0,0,1,6.547,7.14v2.25A1.355,1.355,0,0,1,99.12,14.225ZM79.212,11.514H97.764v-.895a4.46,4.46,0,0,0-4.455-4.455h-.337a1.357,1.357,0,0,1-1.311-1.009,3.282,3.282,0,0,0-6.347,0A1.355,1.355,0,0,1,84,6.164h-.337a4.46,4.46,0,0,0-4.455,4.455Z" transform="translate(-67.952)"/>
      <path id="Path_665" data-name="Path 665" class="cls-1" d="M118.4,28.675h-3.18a1.356,1.356,0,0,1,0-2.711h3.18a1.356,1.356,0,0,1,0,2.711Z" transform="translate(-96.273 -19.68)"/>
      <path id="Path_666" data-name="Path 666" class="cls-1" d="M68.409,92.28a1.354,1.354,0,0,1-1.1-.557l-2-2.748a1.355,1.355,0,1,1,2.191-1.6l.8,1.094,1.951-3.251a1.356,1.356,0,0,1,2.325,1.395l-3,5.005a1.356,1.356,0,0,1-1.1.657Z" transform="translate(-59.273 -64.099)"/>
      <path id="Path_667" data-name="Path 667" class="cls-1" d="M123.917,87.273H107.755a1.356,1.356,0,1,1,0-2.711h16.162a1.356,1.356,0,0,1,0,2.711Z" transform="translate(-90.616 -64.098)"/>
      <path id="Path_668" data-name="Path 668" class="cls-1" d="M116.221,107.96h-8.465a1.356,1.356,0,1,1,0-2.711h8.466a1.356,1.356,0,1,1,0,2.711Z" transform="translate(-90.616 -79.779)"/>
      <path id="Path_669" data-name="Path 669" class="cls-1" d="M68.409,141.544a1.354,1.354,0,0,1-1.1-.557l-2-2.748a1.355,1.355,0,1,1,2.191-1.6l.8,1.093,1.951-3.251a1.356,1.356,0,0,1,2.325,1.395l-3,5.006a1.358,1.358,0,0,1-1.1.657Z" transform="translate(-59.273 -101.441)"/>
      <path id="Path_670" data-name="Path 670" class="cls-1" d="M123.917,136.542H107.755a1.356,1.356,0,1,1,0-2.711h16.162a1.356,1.356,0,0,1,0,2.711Z" transform="translate(-90.616 -101.444)"/>
      <path id="Path_671" data-name="Path 671" class="cls-1" d="M116.221,157.228h-8.465a1.356,1.356,0,1,1,0-2.711h8.466a1.356,1.356,0,1,1,0,2.711Z" transform="translate(-90.616 -117.125)"/>
      <path id="Path_672" data-name="Path 672" class="cls-1" d="M68.409,190.814a1.354,1.354,0,0,1-1.1-.557l-2-2.748a1.355,1.355,0,0,1,2.191-1.6l.8,1.093,1.951-3.251a1.356,1.356,0,0,1,2.325,1.395l-3,5.006a1.358,1.358,0,0,1-1.1.657Z" transform="translate(-59.273 -138.788)"/>
      <path id="Path_673" data-name="Path 673" class="cls-1" d="M123.917,185.811H107.755a1.356,1.356,0,1,1,0-2.711h16.162a1.356,1.356,0,0,1,0,2.711Z" transform="translate(-90.616 -138.79)"/>
      <path id="Path_674" data-name="Path 674" class="cls-1" d="M116.221,206.5h-8.465a1.356,1.356,0,1,1,0-2.711h8.466a1.356,1.356,0,1,1,0,2.711Z" transform="translate(-90.616 -154.471)"/>
    </g>
  </g>
</svg>
