<svg xmlns="http://www.w3.org/2000/svg" width="53.727" height="53.727" viewBox="0 0 53.727 53.727">
  <g id="user-4250" transform="translate(126.036 126.036)">
    <g id="Group_818" data-name="Group 818" transform="translate(-126.036 -126.036)">
      <path id="Path_675" data-name="Path 675" d="M47.54,43.994a26.864,26.864,0,1,0-41.352,0,1.171,1.171,0,0,0,.229.266l0,0a26.811,26.811,0,0,0,40.887,0l0,0A1.2,1.2,0,0,0,47.54,43.994ZM26.864,2.388A24.464,24.464,0,0,1,46.485,41.479,26.794,26.794,0,0,0,33.112,33.7a12.756,12.756,0,1,0-12.5,0A26.794,26.794,0,0,0,7.242,41.478,24.463,24.463,0,0,1,26.864,2.388Zm0,30.575A10.368,10.368,0,1,1,37.231,22.595,10.379,10.379,0,0,1,26.864,32.963Zm0,18.377a24.415,24.415,0,0,1-18.082-8,24.456,24.456,0,0,1,36.165,0A24.415,24.415,0,0,1,26.864,51.34Z" fill="#707070"/>
    </g>
  </g>
</svg>
