<svg xmlns="http://www.w3.org/2000/svg" width="51.216" height="39.016" viewBox="0 0 51.216 39.016">
  <defs>
    <style>
      .cls-1 {
        fill: #707070;
      }
    </style>
  </defs>
  <g id="analytics-4294" transform="translate(126.036 96.014)">
    <g id="Group_816" data-name="Group 816" transform="translate(-126.036 -96.014)">
      <path id="Path_654" data-name="Path 654" class="cls-1" d="M42.4,51.553H18.433a.569.569,0,1,1,0-1.138H42.4a.569.569,0,0,1,0,1.138Z" transform="translate(-14.234 -46.271)"/>
      <path id="Path_655" data-name="Path 655" class="cls-1" d="M220.664,51.553h-2.17a.569.569,0,0,1,0-1.138h2.17a.569.569,0,0,1,0,1.138Z" transform="translate(-173.647 -46.271)"/>
      <path id="Path_656" data-name="Path 656" class="cls-1" d="M195.457,51.553h-2.17a.569.569,0,0,1,0-1.138h2.17a.569.569,0,0,1,0,1.138Z" transform="translate(-153.561 -46.271)"/>
      <path id="Path_657" data-name="Path 657" class="cls-1" d="M120.634,217.584h-2.17a.569.569,0,0,1,0-1.138h2.17a.569.569,0,1,1,0,1.138Z" transform="translate(-93.941 -178.568)"/>
      <path id="Path_658" data-name="Path 658" class="cls-1" d="M48.613,30.022H2.6a2.606,2.606,0,0,0-2.6,2.6V66.436a2.605,2.605,0,0,0,2.6,2.6H20.528a.569.569,0,0,0,0-1.138H2.6a1.466,1.466,0,0,1-1.464-1.464V38.727H50.078V66.436A1.466,1.466,0,0,1,48.613,67.9H30.688a.569.569,0,0,0,0,1.138H48.613a2.605,2.605,0,0,0,2.6-2.6V32.624A2.606,2.606,0,0,0,48.613,30.022ZM1.138,37.589V32.625A1.466,1.466,0,0,1,2.6,31.16H48.613a1.466,1.466,0,0,1,1.464,1.464v4.964Z" transform="translate(0 -30.022)"/>
      <path id="Path_659" data-name="Path 659" class="cls-1" d="M43.311,170.545H39.622a1.51,1.51,0,0,1-1.509-1.509V164.21a1.51,1.51,0,0,1,1.509-1.509h3.689a1.51,1.51,0,0,1,1.509,1.509v4.827A1.51,1.51,0,0,1,43.311,170.545Zm-3.689-6.706a.371.371,0,0,0-.37.37v4.827a.371.371,0,0,0,.37.37h3.689a.371.371,0,0,0,.37-.37v-4.827a.371.371,0,0,0-.37-.37Z" transform="translate(-30.369 -135.744)"/>
      <path id="Path_660" data-name="Path 660" class="cls-1" d="M90.924,161.616H87.235a1.51,1.51,0,0,1-1.509-1.509V153a1.51,1.51,0,0,1,1.509-1.509h3.689A1.51,1.51,0,0,1,92.433,153v7.1A1.51,1.51,0,0,1,90.924,161.616Zm-3.689-8.983a.371.371,0,0,0-.37.37v7.1a.371.371,0,0,0,.37.37h3.689a.371.371,0,0,0,.37-.37V153a.371.371,0,0,0-.37-.37Z" transform="translate(-68.309 -126.814)"/>
      <path id="Path_661" data-name="Path 661" class="cls-1" d="M138.538,139.3h-3.689a1.51,1.51,0,0,1-1.509-1.509V125a1.51,1.51,0,0,1,1.509-1.509h3.689A1.51,1.51,0,0,1,140.046,125V137.79A1.51,1.51,0,0,1,138.538,139.3Zm-3.689-14.673a.371.371,0,0,0-.37.37V137.79a.371.371,0,0,0,.37.37h3.689a.371.371,0,0,0,.37-.37V125a.371.371,0,0,0-.37-.37Z" transform="translate(-106.249 -104.497)"/>
      <path id="Path_662" data-name="Path 662" class="cls-1" d="M186.151,112.518h-3.689a1.51,1.51,0,0,1-1.509-1.509V91.386a1.51,1.51,0,0,1,1.509-1.509h3.689a1.51,1.51,0,0,1,1.509,1.509v19.622A1.51,1.51,0,0,1,186.151,112.518Zm-3.689-21.5a.371.371,0,0,0-.37.37v19.622a.371.371,0,0,0,.37.37h3.689a.371.371,0,0,0,.37-.37V91.386a.371.371,0,0,0-.37-.37Z" transform="translate(-144.188 -77.716)"/>
    </g>
  </g>
</svg>
