<svg xmlns="http://www.w3.org/2000/svg" width="59.744" height="68" viewBox="0 0 59.744 68">
  <defs>
    <style>
      .cls-1 {
        fill: #707070;
      }

      .cls-2 {
        fill: #fefefe;
        stroke: #707070;
      }
    </style>
  </defs>
  <g id="information-1294" transform="translate(25.544 122.036)">
    <g id="Group_820" data-name="Group 820" transform="translate(-25.044 -126.036)">
      <path id="Path_682" data-name="Path 682" class="cls-1" d="M183.5,37.78a1.137,1.137,0,0,1-1.138-1.138V32.159a1.138,1.138,0,0,1,1.138-1.138,3.473,3.473,0,1,0-3.473-3.473,1.138,1.138,0,0,1-2.276,0,5.75,5.75,0,1,1,6.887,5.636v3.459A1.14,1.14,0,0,1,183.5,37.78Z" transform="translate(-140.72 -11.282)"/>
      <path id="Path_684" data-name="Path 684" class="cls-1" d="M188.662,66.328c-.747,0-1.35-.447-1.35-1v-.9c0-.551.6-1,1.35-1s1.35.447,1.35,1v.9C190.012,65.881,189.407,66.328,188.662,66.328Z" transform="translate(-145.666 -35.828)"/>
      <path id="Path_686" data-name="Path 686" class="cls-2" d="M54.3,57.435A4.19,4.19,0,0,0,50.6,52.371a4.9,4.9,0,0,0-3.447.94L26.537,68.405l.1-5.343A4.151,4.151,0,0,0,25.36,59.95a4.365,4.365,0,0,0-3.322-1.187,5,5,0,0,0-4.673,4.758L17,82.872a15.2,15.2,0,0,0,2.907,9.417,15.745,15.745,0,0,0,12.865,6.3,18.43,18.43,0,0,0,10.872-3.613l8.627-6.318a4.6,4.6,0,0,0,1.223-6.371,4.233,4.233,0,0,0-2.995-1.7h-.024l.227-.166a4.905,4.905,0,0,0,1.936-3,4.19,4.19,0,0,0-3.708-5.064,4.749,4.749,0,0,0-.665-.022,4.792,4.792,0,0,0,.595-1.529,4.19,4.19,0,0,0-3.708-5.064h-.023l7.242-5.3A4.909,4.909,0,0,0,54.3,57.435Z" transform="translate(-16.994 -27.089)"/>
      <path id="Path_687" data-name="Path 687" class="cls-1" d="M160.012,0a16.268,16.268,0,0,0-16.249,16.25c0,.2.015.4.022.6a10.992,10.992,0,0,1,3.906-1.466,12.359,12.359,0,1,1,12.321,13.235c-.367,0-.727-.03-1.087-.061a10.852,10.852,0,0,1-2.111,3.611A16.243,16.243,0,1,0,160.012,0Z" transform="translate(-117.016 4)"/>
    </g>
  </g>
</svg>
