<svg id="settings_1_" data-name="settings (1)" xmlns="http://www.w3.org/2000/svg" width="35" height="35" viewBox="0 0 35 35">
  <defs>
    <style>
      .cls-1 {
        fill: none;
        stroke: #615f5f;
        stroke-linecap: round;
        stroke-linejoin: round;
        stroke-width: 2px;
      }
    </style>
  </defs>
  <circle id="Ellipse_167" data-name="Ellipse 167" class="cls-1" cx="4.5" cy="4.5" r="4.5" transform="translate(13 13)"/>
  <path id="Path_834" data-name="Path 834" class="cls-1" d="M28.6,22a2.475,2.475,0,0,0,.5,2.73l.09.09a3,3,0,1,1-4.245,4.245l-.09-.09a2.5,2.5,0,0,0-4.23,1.77V31a3,3,0,1,1-6,0v-.135A2.475,2.475,0,0,0,13,28.6a2.475,2.475,0,0,0-2.73.495l-.09.09A3,3,0,1,1,5.935,24.94l.09-.09a2.5,2.5,0,0,0-1.77-4.23H4a3,3,0,1,1,0-6h.135A2.475,2.475,0,0,0,6.4,13,2.475,2.475,0,0,0,5.9,10.27l-.09-.09A3,3,0,1,1,10.06,5.935l.09.09a2.475,2.475,0,0,0,2.73.5H13a2.475,2.475,0,0,0,1.5-2.265V4a3,3,0,0,1,6,0v.135A2.5,2.5,0,0,0,24.73,5.9l.09-.09a3,3,0,1,1,4.245,4.245l-.09.09a2.475,2.475,0,0,0-.495,2.73V13a2.475,2.475,0,0,0,2.265,1.5H31a3,3,0,0,1,0,6h-.135A2.475,2.475,0,0,0,28.6,22Z"/>
</svg>
